<svg width="127" height="31" viewBox="0 0 127 31" fill="none" xmlns="http://www.w3.org/2000/svg">
<path d="M0.949219 27.7031V3.38672C0.949219 2.85286 1.13151 2.40365 1.49609 2.03906C1.86068 1.67448 2.29688 1.49219 2.80469 1.49219H6.47656C6.98438 1.49219 7.41406 1.67448 7.76562 2.03906C8.13021 2.40365 8.3125 2.85286 8.3125 3.38672V23.9727H25.3242C25.832 23.9727 26.2617 24.1549 26.6133 24.5195C26.9779 24.8841 27.1602 25.3203 27.1602 25.8281V27.6641C27.1602 28.1719 26.9779 28.6081 26.6133 28.9727C26.2617 29.3242 25.832 29.5 25.3242 29.5H2.80469C2.29688 29.5 1.86068 29.3307 1.49609 28.9922C1.13151 28.6406 0.949219 28.2109 0.949219 27.7031ZM55.6172 26.6094C52.9609 28.9401 49.0547 30.1055 43.8984 30.1055C38.7552 30.1055 34.849 28.9401 32.1797 26.6094C29.5104 24.2656 28.1758 20.5612 28.1758 15.4961C28.1758 10.431 29.5104 6.73307 32.1797 4.40234C34.849 2.07161 38.7552 0.90625 43.8984 0.90625C49.0547 0.90625 52.9609 2.07161 55.6172 4.40234C58.2865 6.73307 59.6211 10.431 59.6211 15.4961C59.6211 20.5612 58.2865 24.2656 55.6172 26.6094ZM50.2852 8.52344C48.9701 6.96094 46.8411 6.17969 43.8984 6.17969C40.9688 6.17969 38.8398 6.96094 37.5117 8.52344C36.1966 10.0859 35.5391 12.4167 35.5391 15.5156C35.5391 18.6016 36.1966 20.9258 37.5117 22.4883C38.8398 24.0378 40.9688 24.8125 43.8984 24.8125C46.8411 24.8125 48.9701 24.0378 50.2852 22.4883C51.6003 20.9258 52.2578 18.6016 52.2578 15.5156C52.2578 12.4167 51.6003 10.0859 50.2852 8.52344ZM75.4609 29.6562C71.138 29.6562 67.8177 28.4909 65.5 26.1602C63.1953 23.8294 62.043 20.2682 62.043 15.4766C62.043 10.6719 63.2474 7.11719 65.6562 4.8125C68.0781 2.49479 71.7044 1.33594 76.5352 1.33594H80.8906C83.7682 1.33594 86.3594 2.02604 88.6641 3.40625C90.9818 4.77344 92.1406 6.48568 92.1406 8.54297C92.1406 9.3112 91.9128 9.86458 91.457 10.2031C91.0013 10.5286 90.5586 10.6914 90.1289 10.6914H87.8047C86.6849 10.6914 85.793 10.0534 85.1289 8.77734C84.4648 7.5013 82.8242 6.86328 80.207 6.86328H76.7305C73.8789 6.86328 71.9453 7.47526 70.9297 8.69922C69.9141 9.92318 69.4062 12.1758 69.4062 15.457C69.4062 18.7383 69.862 21.0104 70.7734 22.2734C71.6849 23.5234 73.3125 24.1484 75.6562 24.1484H79.6602C81.7565 24.1484 83.2539 23.7513 84.1523 22.957C85.0508 22.1497 85.513 20.9974 85.5391 19.5H81.125C80.6172 19.5 80.181 19.3242 79.8164 18.9727C79.4648 18.6081 79.2891 18.1719 79.2891 17.6641V16.1406C79.2891 15.6328 79.4648 15.2031 79.8164 14.8516C80.181 14.487 80.6172 14.3047 81.125 14.3047H90.9297C91.4375 14.3047 91.8672 14.487 92.2188 14.8516C92.5833 15.2031 92.7656 15.6328 92.7656 16.1406V18.3086C92.7656 21.9544 91.6719 24.7604 89.4844 26.7266C87.2969 28.6797 84.0872 29.6562 79.8555 29.6562H75.4609ZM122.609 26.6094C119.953 28.9401 116.047 30.1055 110.891 30.1055C105.747 30.1055 101.841 28.9401 99.1719 26.6094C96.5026 24.2656 95.168 20.5612 95.168 15.4961C95.168 10.431 96.5026 6.73307 99.1719 4.40234C101.841 2.07161 105.747 0.90625 110.891 0.90625C116.047 0.90625 119.953 2.07161 122.609 4.40234C125.279 6.73307 126.613 10.431 126.613 15.4961C126.613 20.5612 125.279 24.2656 122.609 26.6094ZM117.277 8.52344C115.962 6.96094 113.833 6.17969 110.891 6.17969C107.961 6.17969 105.832 6.96094 104.504 8.52344C103.189 10.0859 102.531 12.4167 102.531 15.5156C102.531 18.6016 103.189 20.9258 104.504 22.4883C105.832 24.0378 107.961 24.8125 110.891 24.8125C113.833 24.8125 115.962 24.0378 117.277 22.4883C118.592 20.9258 119.25 18.6016 119.25 15.5156C119.25 12.4167 118.592 10.0859 117.277 8.52344Z" fill="#7D97F4"/>
</svg>
