<svg width="512" height="152" viewBox="0 0 512 152" fill="none" xmlns="http://www.w3.org/2000/svg">
<path d="M19.08 29L18.12 25.6H8.2L7.24 29H0.4L9.88 0.999998H16.4L25.92 29H19.08ZM9.64 20.52H16.68L13.16 8.08L9.64 20.52ZM28.8481 29V9.72H34.9681V13.76C35.2881 12.3733 35.9415 11.3067 36.9281 10.56C37.9415 9.78667 39.0615 9.4 40.2881 9.4C40.9281 9.4 41.4615 9.45333 41.8881 9.56V15.24C41.1681 15.16 40.5548 15.12 40.0481 15.12C36.6615 15.12 34.9681 17.2667 34.9681 21.56V29H28.8481ZM64.0191 18.36C64.0191 19.16 63.9657 20.0533 63.8591 21.04H49.6191C49.6724 22.2933 50.0991 23.2667 50.8991 23.96C51.6991 24.6533 52.7791 25 54.1391 25C56.0057 25 57.2057 24.4 57.7391 23.2H63.7391C63.4457 25.0933 62.4057 26.64 60.6191 27.84C58.8591 29.0133 56.6991 29.6 54.1391 29.6C50.8591 29.6 48.2724 28.6933 46.3791 26.88C44.4857 25.0667 43.5391 22.56 43.5391 19.36C43.5391 16.2133 44.4857 13.7333 46.3791 11.92C48.2724 10.08 50.7924 9.16 53.9391 9.16C56.9257 9.16 59.3524 10.0133 61.2191 11.72C63.0857 13.4267 64.0191 15.64 64.0191 18.36ZM49.6191 17.24H57.9791C57.9524 15.96 57.5924 14.9733 56.8991 14.28C56.2057 13.5867 55.2057 13.24 53.8991 13.24C52.5924 13.24 51.5524 13.6133 50.7791 14.36C50.0324 15.08 49.6457 16.04 49.6191 17.24ZM90.2866 9.72H96.4066V28.4C96.4066 31.3867 95.4866 33.7067 93.6466 35.36C91.9132 36.8533 89.5532 37.6 86.5666 37.6C83.4466 37.6 81.0732 36.9333 79.4466 35.6C77.8732 34.2667 77.0732 32.5733 77.0466 30.52H83.2066C83.3399 32.2533 84.4599 33.12 86.5666 33.12C89.0466 33.12 90.2866 31.68 90.2866 28.8V25.8C89.1666 27.9333 87.1266 29 84.1666 29C81.7932 29 80.0066 28.28 78.8066 26.84C77.6332 25.4 77.0466 23.4267 77.0466 20.92V9.72H83.1666V20C83.1666 22.7733 84.2999 24.16 86.5666 24.16C87.7666 24.16 88.6866 23.7333 89.3266 22.88C89.9666 22 90.2866 20.8 90.2866 19.28V9.72ZM118.425 26.72C116.505 28.64 113.919 29.6 110.665 29.6C107.412 29.6 104.812 28.64 102.865 26.72C100.919 24.8 99.9453 22.3467 99.9453 19.36C99.9453 16.3733 100.919 13.9333 102.865 12.04C104.812 10.12 107.412 9.16 110.665 9.16C113.919 9.16 116.505 10.12 118.425 12.04C120.372 13.9333 121.345 16.3733 121.345 19.36C121.345 22.3467 120.372 24.8 118.425 26.72ZM110.665 24.4C112.079 24.4 113.199 23.9333 114.025 23C114.852 22.0667 115.265 20.8533 115.265 19.36C115.265 17.8667 114.852 16.6533 114.025 15.72C113.199 14.7867 112.079 14.32 110.665 14.32C109.225 14.32 108.092 14.7867 107.265 15.72C106.465 16.6533 106.065 17.8667 106.065 19.36C106.065 20.8533 106.465 22.0667 107.265 23C108.092 23.9333 109.225 24.4 110.665 24.4ZM131.784 29.52C129.49 29.52 127.73 28.84 126.504 27.48C125.277 26.0933 124.664 24.1467 124.664 21.64V9.72H130.864V20.28C130.864 23 131.93 24.36 134.064 24.36C136.544 24.36 137.784 22.9333 137.784 20.08V9.72H143.864V29H137.784V26.24C136.637 28.4267 134.637 29.52 131.784 29.52ZM158.653 29V0.999998H164.773V29H158.653ZM186.785 26.72C184.865 28.64 182.278 29.6 179.025 29.6C175.771 29.6 173.171 28.64 171.225 26.72C169.278 24.8 168.305 22.3467 168.305 19.36C168.305 16.3733 169.278 13.9333 171.225 12.04C173.171 10.12 175.771 9.16 179.025 9.16C182.278 9.16 184.865 10.12 186.785 12.04C188.731 13.9333 189.705 16.3733 189.705 19.36C189.705 22.3467 188.731 24.8 186.785 26.72ZM179.025 24.4C180.438 24.4 181.558 23.9333 182.385 23C183.211 22.0667 183.625 20.8533 183.625 19.36C183.625 17.8667 183.211 16.6533 182.385 15.72C181.558 14.7867 180.438 14.32 179.025 14.32C177.585 14.32 176.451 14.7867 175.625 15.72C174.825 16.6533 174.425 17.8667 174.425 19.36C174.425 20.8533 174.825 22.0667 175.625 23C176.451 23.9333 177.585 24.4 179.025 24.4ZM210.847 26.72C208.927 28.64 206.341 29.6 203.087 29.6C199.834 29.6 197.234 28.64 195.287 26.72C193.341 24.8 192.367 22.3467 192.367 19.36C192.367 16.3733 193.341 13.9333 195.287 12.04C197.234 10.12 199.834 9.16 203.087 9.16C206.341 9.16 208.927 10.12 210.847 12.04C212.794 13.9333 213.767 16.3733 213.767 19.36C213.767 22.3467 212.794 24.8 210.847 26.72ZM203.087 24.4C204.501 24.4 205.621 23.9333 206.447 23C207.274 22.0667 207.687 20.8533 207.687 19.36C207.687 17.8667 207.274 16.6533 206.447 15.72C205.621 14.7867 204.501 14.32 203.087 14.32C201.647 14.32 200.514 14.7867 199.687 15.72C198.887 16.6533 198.487 17.8667 198.487 19.36C198.487 20.8533 198.887 22.0667 199.687 23C200.514 23.9333 201.647 24.4 203.087 24.4ZM237.006 29H229.526L223.406 20.64V29H217.286V0.999998H223.406V17.76L229.686 9.72H236.886L229.206 18.84L237.006 29ZM246.133 6.92C245.413 7.64 244.506 8 243.413 8C242.319 8 241.413 7.64 240.693 6.92C239.999 6.2 239.653 5.32 239.653 4.28C239.653 3.21333 239.999 2.32 240.693 1.6C241.413 0.879999 242.319 0.52 243.413 0.52C244.506 0.52 245.413 0.893333 246.133 1.64C246.853 2.36 247.213 3.24 247.213 4.28C247.213 5.32 246.853 6.2 246.133 6.92ZM240.333 29V9.72H246.453V29H240.333ZM251.504 29V9.72H257.624V12.52C258.771 10.3067 260.851 9.2 263.864 9.2C268.558 9.2 270.904 11.8267 270.904 17.08V29H264.744V19.08C264.744 17.4267 264.478 16.2267 263.944 15.48C263.438 14.7333 262.571 14.36 261.344 14.36C258.864 14.36 257.624 15.88 257.624 18.92V29H251.504ZM289.601 9.72H295.721V27.68C295.721 31.4133 294.481 34.1467 292.001 35.88C290.375 37.0267 288.081 37.6 285.121 37.6C282.215 37.6 279.895 37.08 278.161 36.04C277.175 35.4267 276.361 34.64 275.721 33.68C275.081 32.72 274.748 31.72 274.721 30.68H280.961C281.255 32.3067 282.615 33.12 285.041 33.12C288.081 33.12 289.601 31.56 289.601 28.44V25.88C289.121 26.8133 288.308 27.5733 287.161 28.16C286.041 28.72 284.841 29 283.561 29C280.761 29 278.535 28.0933 276.881 26.28C275.228 24.44 274.401 22.0667 274.401 19.16C274.401 16.28 275.255 13.9067 276.961 12.04C278.668 10.1467 280.895 9.2 283.641 9.2C284.975 9.2 286.175 9.50667 287.241 10.12C288.335 10.7067 289.121 11.4933 289.601 12.48V9.72ZM285.241 24.28C286.655 24.28 287.775 23.8 288.601 22.84C289.455 21.88 289.881 20.68 289.881 19.24C289.881 17.8 289.455 16.6 288.601 15.64C287.775 14.68 286.655 14.2 285.241 14.2C283.881 14.2 282.775 14.68 281.921 15.64C281.095 16.5733 280.681 17.7733 280.681 19.24C280.681 20.7067 281.095 21.92 281.921 22.88C282.775 23.8133 283.881 24.28 285.241 24.28ZM321.009 5.32C319.142 5.32 318.209 6.13333 318.209 7.76V9.72H322.689V14.56H318.209V29H312.089V14.56H308.649V9.72H312.089V7.84C312.089 6.42667 312.315 5.22667 312.769 4.24C313.222 3.22667 313.822 2.48 314.569 2C315.315 1.52 316.062 1.17333 316.809 0.959999C317.555 0.746665 318.342 0.639998 319.169 0.639998C320.582 0.639998 321.755 0.786665 322.689 1.08V5.44C322.555 5.44 322.289 5.42666 321.889 5.4C321.515 5.34667 321.222 5.32 321.009 5.32ZM342.41 26.72C340.49 28.64 337.903 29.6 334.65 29.6C331.396 29.6 328.796 28.64 326.85 26.72C324.903 24.8 323.93 22.3467 323.93 19.36C323.93 16.3733 324.903 13.9333 326.85 12.04C328.796 10.12 331.396 9.16 334.65 9.16C337.903 9.16 340.49 10.12 342.41 12.04C344.356 13.9333 345.33 16.3733 345.33 19.36C345.33 22.3467 344.356 24.8 342.41 26.72ZM334.65 24.4C336.063 24.4 337.183 23.9333 338.01 23C338.836 22.0667 339.25 20.8533 339.25 19.36C339.25 17.8667 338.836 16.6533 338.01 15.72C337.183 14.7867 336.063 14.32 334.65 14.32C333.21 14.32 332.076 14.7867 331.25 15.72C330.45 16.6533 330.05 17.8667 330.05 19.36C330.05 20.8533 330.45 22.0667 331.25 23C332.076 23.9333 333.21 24.4 334.65 24.4ZM348.848 29V9.72H354.968V13.76C355.288 12.3733 355.941 11.3067 356.928 10.56C357.941 9.78667 359.061 9.4 360.288 9.4C360.928 9.4 361.461 9.45333 361.888 9.56V15.24C361.168 15.16 360.555 15.12 360.048 15.12C356.661 15.12 354.968 17.2667 354.968 21.56V29H348.848ZM382.583 29.52C379.783 29.52 377.569 28.5733 375.943 26.68C374.316 24.7867 373.503 22.3467 373.503 19.36C373.503 16.4267 374.343 14 376.023 12.08C377.703 10.16 379.916 9.2 382.663 9.2C384.023 9.2 385.236 9.49333 386.303 10.08C387.369 10.6667 388.169 11.4667 388.703 12.48V9.72H394.783V29H388.703V26.28C388.169 27.24 387.343 28.0267 386.223 28.64C385.129 29.2267 383.916 29.52 382.583 29.52ZM384.343 24.44C385.809 24.44 386.943 23.96 387.743 23C388.543 22.04 388.943 20.8267 388.943 19.36C388.943 17.92 388.543 16.72 387.743 15.76C386.943 14.8 385.809 14.32 384.343 14.32C382.956 14.32 381.836 14.7867 380.983 15.72C380.156 16.6533 379.743 17.8667 379.743 19.36C379.743 20.8533 380.156 22.08 380.983 23.04C381.836 23.9733 382.956 24.44 384.343 24.44ZM423.39 9.72H429.47V37H423.35V27.32H423.39V26.28C422.857 27.24 422.03 28.0267 420.91 28.64C419.817 29.2267 418.604 29.52 417.27 29.52C414.47 29.52 412.257 28.5733 410.63 26.68C409.004 24.7867 408.19 22.3467 408.19 19.36C408.19 16.4267 409.03 14 410.71 12.08C412.39 10.16 414.604 9.2 417.35 9.2C418.71 9.2 419.924 9.49333 420.99 10.08C422.057 10.6667 422.857 11.4667 423.39 12.48V9.72ZM419.03 24.44C420.497 24.44 421.63 23.96 422.43 23C423.23 22.04 423.63 20.8267 423.63 19.36C423.63 17.92 423.23 16.72 422.43 15.76C421.63 14.8 420.497 14.32 419.03 14.32C417.644 14.32 416.524 14.7867 415.67 15.72C414.844 16.6533 414.43 17.8667 414.43 19.36C414.43 20.8533 414.844 22.08 415.67 23.04C416.524 23.9733 417.644 24.44 419.03 24.44ZM441.471 29.52C439.178 29.52 437.418 28.84 436.191 27.48C434.965 26.0933 434.351 24.1467 434.351 21.64V9.72H440.551V20.28C440.551 23 441.618 24.36 443.751 24.36C446.231 24.36 447.471 22.9333 447.471 20.08V9.72H453.551V29H447.471V26.24C446.325 28.4267 444.325 29.52 441.471 29.52ZM464.414 6.92C463.694 7.64 462.787 8 461.694 8C460.6 8 459.694 7.64 458.974 6.92C458.28 6.2 457.934 5.32 457.934 4.28C457.934 3.21333 458.28 2.32 458.974 1.6C459.694 0.879999 460.6 0.52 461.694 0.52C462.787 0.52 463.694 0.893333 464.414 1.64C465.134 2.36 465.494 3.24 465.494 4.28C465.494 5.32 465.134 6.2 464.414 6.92ZM458.614 29V9.72H464.734V29H458.614ZM478.586 29.6C475.439 29.6 472.932 28.6667 471.066 26.8C469.199 24.9067 468.266 22.4267 468.266 19.36C468.266 16.2933 469.199 13.8267 471.066 11.96C472.932 10.0933 475.439 9.16 478.586 9.16C481.439 9.16 483.759 9.86667 485.546 11.28C487.332 12.6933 488.346 14.6133 488.586 17.04H482.466C482.012 15.2267 480.732 14.32 478.626 14.32C477.292 14.32 476.252 14.76 475.506 15.64C474.759 16.52 474.386 17.76 474.386 19.36C474.386 20.96 474.759 22.2 475.506 23.08C476.252 23.96 477.292 24.4 478.626 24.4C480.732 24.4 482.012 23.5467 482.466 21.84H488.586C488.346 24.2133 487.332 26.1067 485.546 27.52C483.759 28.9067 481.439 29.6 478.586 29.6ZM511.81 29H504.33L498.21 20.64V29H492.09V0.999998H498.21V17.76L504.49 9.72H511.69L504.01 18.84L511.81 29ZM2.52 89V61H8.64V89H2.52ZM30.6519 86.72C28.7319 88.64 26.1452 89.6 22.8919 89.6C19.6385 89.6 17.0385 88.64 15.0919 86.72C13.1452 84.8 12.1719 82.3467 12.1719 79.36C12.1719 76.3733 13.1452 73.9333 15.0919 72.04C17.0385 70.12 19.6385 69.16 22.8919 69.16C26.1452 69.16 28.7319 70.12 30.6519 72.04C32.5985 73.9333 33.5719 76.3733 33.5719 79.36C33.5719 82.3467 32.5985 84.8 30.6519 86.72ZM22.8919 84.4C24.3052 84.4 25.4252 83.9333 26.2519 83C27.0785 82.0667 27.4919 80.8533 27.4919 79.36C27.4919 77.8667 27.0785 76.6533 26.2519 75.72C25.4252 74.7867 24.3052 74.32 22.8919 74.32C21.4519 74.32 20.3185 74.7867 19.4919 75.72C18.6919 76.6533 18.2919 77.8667 18.2919 79.36C18.2919 80.8533 18.6919 82.0667 19.4919 83C20.3185 83.9333 21.4519 84.4 22.8919 84.4ZM45.2391 89.52C42.4391 89.52 40.2257 88.5733 38.5991 86.68C36.9724 84.7867 36.1591 82.3467 36.1591 79.36C36.1591 76.4267 36.9991 74 38.6791 72.08C40.3591 70.16 42.5724 69.2 45.3191 69.2C46.6791 69.2 47.8924 69.4933 48.9591 70.08C50.0257 70.6667 50.8257 71.4667 51.3591 72.48V69.72H57.4391V89H51.3591V86.28C50.8257 87.24 49.9991 88.0267 48.8791 88.64C47.7857 89.2267 46.5724 89.52 45.2391 89.52ZM46.9991 84.44C48.4657 84.44 49.5991 83.96 50.3991 83C51.1991 82.04 51.5991 80.8267 51.5991 79.36C51.5991 77.92 51.1991 76.72 50.3991 75.76C49.5991 74.8 48.4657 74.32 46.9991 74.32C45.6124 74.32 44.4924 74.7867 43.6391 75.72C42.8124 76.6533 42.3991 77.8667 42.3991 79.36C42.3991 80.8533 42.8124 82.08 43.6391 83.04C44.4924 83.9733 45.6124 84.44 46.9991 84.44ZM62.52 89V69.72H68.64V72.52C69.7867 70.3067 71.8667 69.2 74.88 69.2C79.5733 69.2 81.92 71.8267 81.92 77.08V89H75.76V79.08C75.76 77.4267 75.4933 76.2267 74.96 75.48C74.4533 74.7333 73.5867 74.36 72.36 74.36C69.88 74.36 68.64 75.88 68.64 78.92V89H62.52ZM89.7956 79.2V78.8C89.7956 77.4933 89.9823 76.44 90.3556 75.64C90.7556 74.84 91.529 74.0533 92.6756 73.28L94.5556 72.04C96.049 71.0533 96.7956 69.8 96.7956 68.28C96.7956 67.32 96.5023 66.56 95.9156 66C95.3556 65.44 94.609 65.16 93.6756 65.16C92.5023 65.16 91.5556 65.5067 90.8356 66.2C90.1423 66.8933 89.7956 67.9333 89.7956 69.32H83.3956C83.3956 66.6533 84.2756 64.48 86.0356 62.8C87.8223 61.12 90.4356 60.28 93.8756 60.28C96.7023 60.28 98.969 60.96 100.676 62.32C102.409 63.6533 103.276 65.5467 103.276 68C103.276 69.5733 102.916 70.9067 102.196 72C101.502 73.0667 100.542 74.0667 99.3156 75L97.6756 76.2C97.0623 76.6533 96.649 77.0667 96.4356 77.44C96.2223 77.7867 96.1156 78.2133 96.1156 78.72V79.2H89.7956ZM92.9556 89.36C91.7823 89.36 90.7956 88.96 89.9956 88.16C89.1956 87.3333 88.7956 86.36 88.7956 85.24C88.7956 84.12 89.1956 83.16 89.9956 82.36C90.7956 81.56 91.7823 81.16 92.9556 81.16C94.1023 81.16 95.0756 81.56 95.8756 82.36C96.7023 83.16 97.1156 84.12 97.1156 85.24C97.1156 86.36 96.7023 87.3333 95.8756 88.16C95.0756 88.96 94.1023 89.36 92.9556 89.36ZM146.078 74.28V79.16H143.438C142.718 82.5467 141.132 85.1733 138.678 87.04C136.252 88.88 133.118 89.8 129.278 89.8C124.852 89.8 121.265 88.4267 118.518 85.68C115.798 82.9067 114.452 79.3867 114.478 75.12C114.478 70.88 115.825 67.3333 118.518 64.48C121.238 61.6267 124.945 60.2 129.638 60.2C133.345 60.2 136.412 61.0933 138.838 62.88C141.292 64.6667 142.638 66.9333 142.878 69.68H135.798C135.532 68.48 134.852 67.5067 133.758 66.76C132.692 66.0133 131.332 65.64 129.678 65.64C126.932 65.64 124.825 66.5067 123.358 68.24C121.918 69.9733 121.212 72.2267 121.238 75C121.212 77.6667 121.945 79.8667 123.438 81.6C124.958 83.3067 126.958 84.16 129.438 84.16C133.358 84.16 135.798 82.4933 136.758 79.16H131.758V74.28H146.078ZM168.472 78.36C168.472 79.16 168.419 80.0533 168.312 81.04H154.072C154.126 82.2933 154.552 83.2667 155.352 83.96C156.152 84.6533 157.232 85 158.592 85C160.459 85 161.659 84.4 162.192 83.2H168.192C167.899 85.0933 166.859 86.64 165.072 87.84C163.312 89.0133 161.152 89.6 158.592 89.6C155.312 89.6 152.726 88.6933 150.832 86.88C148.939 85.0667 147.992 82.56 147.992 79.36C147.992 76.2133 148.939 73.7333 150.832 71.92C152.726 70.08 155.246 69.16 158.392 69.16C161.379 69.16 163.806 70.0133 165.672 71.72C167.539 73.4267 168.472 75.64 168.472 78.36ZM154.072 77.24H162.432C162.406 75.96 162.046 74.9733 161.352 74.28C160.659 73.5867 159.659 73.24 158.352 73.24C157.046 73.24 156.006 73.6133 155.232 74.36C154.486 75.08 154.099 76.04 154.072 77.24ZM182.015 84.24C182.868 84.24 183.575 84.2 184.135 84.12V89C182.962 89.2133 181.602 89.32 180.055 89.32C179.362 89.32 178.748 89.28 178.215 89.2C177.682 89.12 177.082 88.9467 176.415 88.68C175.748 88.3867 175.202 88 174.775 87.52C174.348 87.04 173.975 86.3467 173.655 85.44C173.362 84.5333 173.215 83.4667 173.215 82.24V74.56H170.175V69.72H173.215V64H179.335V69.72H183.695V74.56H179.335V80.96C179.335 82.2667 179.562 83.1467 180.015 83.6C180.468 84.0267 181.135 84.24 182.015 84.24ZM210.404 69.72H216.524V88.4C216.524 91.3867 215.604 93.7067 213.764 95.36C212.03 96.8533 209.67 97.6 206.684 97.6C203.564 97.6 201.19 96.9333 199.564 95.6C197.99 94.2667 197.19 92.5733 197.164 90.52H203.324C203.457 92.2533 204.577 93.12 206.684 93.12C209.164 93.12 210.404 91.68 210.404 88.8V85.8C209.284 87.9333 207.244 89 204.284 89C201.91 89 200.124 88.28 198.924 86.84C197.75 85.4 197.164 83.4267 197.164 80.92V69.72H203.284V80C203.284 82.7733 204.417 84.16 206.684 84.16C207.884 84.16 208.804 83.7333 209.444 82.88C210.084 82 210.404 80.8 210.404 79.28V69.72ZM238.543 86.72C236.623 88.64 234.036 89.6 230.783 89.6C227.529 89.6 224.929 88.64 222.983 86.72C221.036 84.8 220.063 82.3467 220.063 79.36C220.063 76.3733 221.036 73.9333 222.983 72.04C224.929 70.12 227.529 69.16 230.783 69.16C234.036 69.16 236.623 70.12 238.543 72.04C240.489 73.9333 241.463 76.3733 241.463 79.36C241.463 82.3467 240.489 84.8 238.543 86.72ZM230.783 84.4C232.196 84.4 233.316 83.9333 234.143 83C234.969 82.0667 235.383 80.8533 235.383 79.36C235.383 77.8667 234.969 76.6533 234.143 75.72C233.316 74.7867 232.196 74.32 230.783 74.32C229.343 74.32 228.209 74.7867 227.383 75.72C226.583 76.6533 226.183 77.8667 226.183 79.36C226.183 80.8533 226.583 82.0667 227.383 83C228.209 83.9333 229.343 84.4 230.783 84.4ZM251.901 89.52C249.608 89.52 247.848 88.84 246.621 87.48C245.394 86.0933 244.781 84.1467 244.781 81.64V69.72H250.981V80.28C250.981 83 252.048 84.36 254.181 84.36C256.661 84.36 257.901 82.9333 257.901 80.08V69.72H263.981V89H257.901V86.24C256.754 88.4267 254.754 89.52 251.901 89.52ZM269.043 89V69.72H275.163V73.76C275.483 72.3733 276.137 71.3067 277.123 70.56C278.137 69.7867 279.257 69.4 280.483 69.4C281.123 69.4 281.657 69.4533 282.083 69.56V75.24C281.363 75.16 280.75 75.12 280.243 75.12C276.857 75.12 275.163 77.2667 275.163 81.56V89H269.043ZM295.098 89V61H301.218V89H295.098ZM323.23 86.72C321.31 88.64 318.723 89.6 315.47 89.6C312.217 89.6 309.617 88.64 307.67 86.72C305.723 84.8 304.75 82.3467 304.75 79.36C304.75 76.3733 305.723 73.9333 307.67 72.04C309.617 70.12 312.217 69.16 315.47 69.16C318.723 69.16 321.31 70.12 323.23 72.04C325.177 73.9333 326.15 76.3733 326.15 79.36C326.15 82.3467 325.177 84.8 323.23 86.72ZM315.47 84.4C316.883 84.4 318.003 83.9333 318.83 83C319.657 82.0667 320.07 80.8533 320.07 79.36C320.07 77.8667 319.657 76.6533 318.83 75.72C318.003 74.7867 316.883 74.32 315.47 74.32C314.03 74.32 312.897 74.7867 312.07 75.72C311.27 76.6533 310.87 77.8667 310.87 79.36C310.87 80.8533 311.27 82.0667 312.07 83C312.897 83.9333 314.03 84.4 315.47 84.4ZM337.817 89.52C335.017 89.52 332.804 88.5733 331.177 86.68C329.551 84.7867 328.737 82.3467 328.737 79.36C328.737 76.4267 329.577 74 331.257 72.08C332.937 70.16 335.151 69.2 337.897 69.2C339.257 69.2 340.471 69.4933 341.537 70.08C342.604 70.6667 343.404 71.4667 343.937 72.48V69.72H350.017V89H343.937V86.28C343.404 87.24 342.577 88.0267 341.457 88.64C340.364 89.2267 339.151 89.52 337.817 89.52ZM339.577 84.44C341.044 84.44 342.177 83.96 342.977 83C343.777 82.04 344.177 80.8267 344.177 79.36C344.177 77.92 343.777 76.72 342.977 75.76C342.177 74.8 341.044 74.32 339.577 74.32C338.191 74.32 337.071 74.7867 336.217 75.72C335.391 76.6533 334.977 77.8667 334.977 79.36C334.977 80.8533 335.391 82.08 336.217 83.04C337.071 83.9733 338.191 84.44 339.577 84.44ZM355.098 89V69.72H361.218V72.52C362.365 70.3067 364.445 69.2 367.458 69.2C372.151 69.2 374.498 71.8267 374.498 77.08V89H368.338V79.08C368.338 77.4267 368.071 76.2267 367.538 75.48C367.031 74.7333 366.165 74.36 364.938 74.36C362.458 74.36 361.218 75.88 361.218 78.92V89H355.098ZM394.922 66.92C394.202 67.64 393.295 68 392.202 68C391.108 68 390.202 67.64 389.482 66.92C388.788 66.2 388.442 65.32 388.442 64.28C388.442 63.2133 388.788 62.32 389.482 61.6C390.202 60.88 391.108 60.52 392.202 60.52C393.295 60.52 394.202 60.8933 394.922 61.64C395.642 62.36 396.002 63.24 396.002 64.28C396.002 65.32 395.642 66.2 394.922 66.92ZM389.122 89V69.72H395.242V89H389.122ZM400.293 89V69.72H406.413V72.52C407.56 70.3067 409.64 69.2 412.653 69.2C417.347 69.2 419.693 71.8267 419.693 77.08V89H413.533V79.08C413.533 77.4267 413.267 76.2267 412.733 75.48C412.227 74.7333 411.36 74.36 410.133 74.36C407.653 74.36 406.413 75.88 406.413 78.92V89H400.293Z" fill="#222222"/>
<path d="M1.68 149C1.68 145.72 2.22667 143.08 3.32 141.08C4.41333 139.053 6.21333 137.387 8.72 136.08L13.08 133.8C15.08 132.76 16.08 131.32 16.08 129.48C16.08 128.493 15.7733 127.707 15.16 127.12C14.5733 126.507 13.7867 126.2 12.8 126.2C11.5467 126.2 10.5733 126.613 9.88 127.44C9.21333 128.24 8.88 129.4 8.88 130.92H2.28C2.28 127.987 3.22667 125.64 5.12 123.88C7.04 122.093 9.58667 121.2 12.76 121.2C15.88 121.2 18.32 121.92 20.08 123.36C21.84 124.773 22.72 126.733 22.72 129.24C22.72 132.867 20.92 135.627 17.32 137.52L13.28 139.68C12.1067 140.32 11.2667 140.92 10.76 141.48C10.28 142.04 9.90667 142.787 9.64 143.72H22.48V149H1.68ZM47.7294 135.8V141.28H44.4894V149H38.1294V141.28H26.8094V121.8H33.1694V135.8H38.1294V128.76H44.4894V135.8H47.7294ZM73.8253 129.2C78.5186 129.2 80.8653 131.827 80.8653 137.08V149H74.7053V139.08C74.7053 137.427 74.4386 136.227 73.9053 135.48C73.3986 134.733 72.532 134.36 71.3053 134.36C68.8253 134.36 67.5853 135.88 67.5853 138.92V149H61.4653V121H67.5853V132.52C68.732 130.307 70.812 129.2 73.8253 129.2ZM102.722 146.72C100.802 148.64 98.2155 149.6 94.9622 149.6C91.7089 149.6 89.1089 148.64 87.1622 146.72C85.2155 144.8 84.2422 142.347 84.2422 139.36C84.2422 136.373 85.2155 133.933 87.1622 132.04C89.1089 130.12 91.7089 129.16 94.9622 129.16C98.2155 129.16 100.802 130.12 102.722 132.04C104.669 133.933 105.642 136.373 105.642 139.36C105.642 142.347 104.669 144.8 102.722 146.72ZM94.9622 144.4C96.3755 144.4 97.4955 143.933 98.3222 143C99.1489 142.067 99.5622 140.853 99.5622 139.36C99.5622 137.867 99.1489 136.653 98.3222 135.72C97.4955 134.787 96.3755 134.32 94.9622 134.32C93.5222 134.32 92.3889 134.787 91.5622 135.72C90.7622 136.653 90.3622 137.867 90.3622 139.36C90.3622 140.853 90.7622 142.067 91.5622 143C92.3889 143.933 93.5222 144.4 94.9622 144.4ZM116.081 149.52C113.787 149.52 112.027 148.84 110.801 147.48C109.574 146.093 108.961 144.147 108.961 141.64V129.72H115.161V140.28C115.161 143 116.227 144.36 118.361 144.36C120.841 144.36 122.081 142.933 122.081 140.08V129.72H128.161V149H122.081V146.24C120.934 148.427 118.934 149.52 116.081 149.52ZM133.223 149V129.72H139.343V133.76C139.663 132.373 140.316 131.307 141.303 130.56C142.316 129.787 143.436 129.4 144.663 129.4C145.303 129.4 145.836 129.453 146.263 129.56V135.24C145.543 135.16 144.93 135.12 144.423 135.12C141.036 135.12 139.343 137.267 139.343 141.56V149H133.223ZM156.998 149.6C154.224 149.6 152.011 149 150.358 147.8C148.704 146.6 147.878 145.067 147.878 143.2H153.958C153.958 143.867 154.251 144.413 154.838 144.84C155.424 145.267 156.184 145.48 157.118 145.48C157.784 145.48 158.318 145.32 158.718 145C159.144 144.68 159.358 144.24 159.358 143.68C159.358 142.8 158.891 142.253 157.958 142.04L153.238 140.84C151.664 140.44 150.464 139.76 149.638 138.8C148.811 137.84 148.398 136.667 148.398 135.28C148.398 133.467 149.144 132 150.638 130.88C152.131 129.733 154.131 129.16 156.638 129.16C159.411 129.16 161.531 129.693 162.998 130.76C164.491 131.827 165.238 133.293 165.238 135.16H159.198C159.198 134.493 158.958 133.973 158.478 133.6C158.024 133.227 157.384 133.04 156.558 133.04C155.891 133.04 155.358 133.187 154.958 133.48C154.558 133.773 154.358 134.16 154.358 134.64C154.358 135.493 154.904 136.067 155.998 136.36L160.558 137.6C162.078 138 163.264 138.667 164.118 139.6C164.998 140.507 165.438 141.627 165.438 142.96C165.438 144.96 164.678 146.573 163.158 147.8C161.664 149 159.611 149.6 156.998 149.6ZM176.445 151.8H216.445V111.8H176.445V151.8Z" fill="#7D97F4"/>
</svg>
