<svg width="159" height="57" viewBox="0 0 159 57" fill="none" xmlns="http://www.w3.org/2000/svg">
<rect width="159" height="57" rx="10" fill="#7D97F4"/>
<path d="M33.3771 34V22.8H35.4251V32.4H40.3851V34H33.3771ZM45.6382 34.192C44.8382 34.192 44.1289 34.0213 43.5102 33.68C42.8915 33.3387 42.4062 32.8587 42.0542 32.24C41.7022 31.6213 41.5262 30.9067 41.5262 30.096C41.5262 29.2747 41.6969 28.544 42.0382 27.904C42.3902 27.264 42.8702 26.768 43.4782 26.416C44.0969 26.0533 44.8222 25.872 45.6542 25.872C46.4329 25.872 47.1209 26.0427 47.7182 26.384C48.3155 26.7253 48.7795 27.1947 49.1102 27.792C49.4515 28.3787 49.6222 29.0347 49.6222 29.76C49.6222 29.8773 49.6169 30 49.6062 30.128C49.6062 30.256 49.6009 30.3893 49.5902 30.528H43.5582C43.6009 31.1467 43.8142 31.632 44.1982 31.984C44.5929 32.336 45.0675 32.512 45.6222 32.512C46.0382 32.512 46.3849 32.4213 46.6622 32.24C46.9502 32.048 47.1635 31.8027 47.3022 31.504H49.3822C49.2329 32.0053 48.9822 32.464 48.6302 32.88C48.2889 33.2853 47.8622 33.6053 47.3502 33.84C46.8489 34.0747 46.2782 34.192 45.6382 34.192ZM45.6542 27.536C45.1529 27.536 44.7102 27.68 44.3262 27.968C43.9422 28.2453 43.6969 28.672 43.5902 29.248H47.5422C47.5102 28.7253 47.3182 28.3093 46.9662 28C46.6142 27.6907 46.1769 27.536 45.6542 27.536ZM54.7401 34C53.9081 34 53.2414 33.7973 52.7401 33.392C52.2387 32.9867 51.9881 32.2667 51.9881 31.232V27.776H50.6281V26.064H51.9881L52.2281 23.936H54.0361V26.064H56.1801V27.776H54.0361V31.248C54.0361 31.632 54.1161 31.8987 54.2761 32.048C54.4467 32.1867 54.7347 32.256 55.1401 32.256H56.1321V34H54.7401ZM57.5544 26.736L58.4344 22.8H60.5944L58.9624 26.736H57.5544ZM64.6247 34.192C63.9207 34.192 63.302 34.08 62.7687 33.856C62.2354 33.6213 61.8087 33.3013 61.4887 32.896C61.1687 32.4907 60.9767 32.0213 60.9127 31.488H62.9767C63.0407 31.7973 63.2114 32.064 63.4887 32.288C63.7767 32.5013 64.1447 32.608 64.5927 32.608C65.0407 32.608 65.366 32.5173 65.5687 32.336C65.782 32.1547 65.8887 31.9467 65.8887 31.712C65.8887 31.3707 65.7394 31.1413 65.4407 31.024C65.142 30.896 64.726 30.7733 64.1927 30.656C63.8514 30.5813 63.5047 30.4907 63.1527 30.384C62.8007 30.2773 62.4754 30.144 62.1767 29.984C61.8887 29.8133 61.654 29.6 61.4727 29.344C61.2914 29.0773 61.2007 28.752 61.2007 28.368C61.2007 27.664 61.478 27.072 62.0327 26.592C62.598 26.112 63.3874 25.872 64.4007 25.872C65.3394 25.872 66.086 26.0907 66.6407 26.528C67.206 26.9653 67.542 27.568 67.6487 28.336H65.7127C65.5954 27.7493 65.1527 27.456 64.3847 27.456C64.0007 27.456 63.702 27.5307 63.4887 27.68C63.286 27.8293 63.1847 28.016 63.1847 28.24C63.1847 28.4747 63.3394 28.6613 63.6487 28.8C63.958 28.9387 64.3687 29.0667 64.8807 29.184C65.4354 29.312 65.942 29.456 66.4007 29.616C66.87 29.7653 67.2434 29.9947 67.5207 30.304C67.798 30.6027 67.9367 31.0347 67.9367 31.6C67.9474 32.0907 67.8194 32.5333 67.5527 32.928C67.286 33.3227 66.902 33.632 66.4007 33.856C65.8994 34.08 65.3074 34.192 64.6247 34.192ZM76.2194 34V24.448H72.9554V22.8H81.5474V24.448H78.2674V34H76.2194ZM84.3932 34.192C83.7105 34.192 83.1505 34.0853 82.7132 33.872C82.2759 33.648 81.9505 33.3547 81.7372 32.992C81.5239 32.6293 81.4172 32.2293 81.4172 31.792C81.4172 31.056 81.7052 30.4587 82.2812 30C82.8572 29.5413 83.7212 29.312 84.8732 29.312H86.8892V29.12C86.8892 28.576 86.7345 28.176 86.4252 27.92C86.1159 27.664 85.7319 27.536 85.2732 27.536C84.8572 27.536 84.4945 27.6373 84.1852 27.84C83.8759 28.032 83.6839 28.32 83.6092 28.704H81.6092C81.6625 28.128 81.8545 27.6267 82.1852 27.2C82.5265 26.7733 82.9639 26.448 83.4972 26.224C84.0305 25.9893 84.6279 25.872 85.2892 25.872C86.4199 25.872 87.3105 26.1547 87.9612 26.72C88.6119 27.2853 88.9372 28.0853 88.9372 29.12V34H87.1932L87.0012 32.72C86.7665 33.1467 86.4359 33.4987 86.0092 33.776C85.5932 34.0533 85.0545 34.192 84.3932 34.192ZM84.8572 32.592C85.4439 32.592 85.8972 32.4 86.2172 32.016C86.5479 31.632 86.7559 31.1573 86.8412 30.592H85.0972C84.5532 30.592 84.1639 30.6933 83.9292 30.896C83.6945 31.088 83.5772 31.328 83.5772 31.616C83.5772 31.9253 83.6945 32.1653 83.9292 32.336C84.1639 32.5067 84.4732 32.592 84.8572 32.592ZM90.8916 34V22.48H92.9396V34H90.8916ZM95.0322 34V22.48H97.0802V29.28L99.8962 26.064H102.328L99.0802 29.68L102.856 34H100.296L97.0802 30.016V34H95.0322ZM110.711 34.72H126.711V18.72H110.711V34.72Z" fill="white"/>
</svg>
