<svg width="184" height="40" viewBox="0 0 184 40" fill="none" xmlns="http://www.w3.org/2000/svg">
<rect width="184" height="40" rx="20" fill="#F4F7FE"/>
<path d="M43.9157 26L40.5857 13.4H43.0517L45.3197 23.426L47.9837 13.4H50.5217L53.1137 23.426L55.3817 13.4H57.8657L54.4457 26H51.7097L49.2077 16.658L46.6337 26H43.9157ZM59.4815 26V13.04H61.7855V18.44C62.0855 17.948 62.4875 17.564 62.9915 17.288C63.5075 17 64.0955 16.856 64.7555 16.856C65.8595 16.856 66.7115 17.204 67.3115 17.9C67.9235 18.596 68.2295 19.616 68.2295 20.96V26H65.9435V21.176C65.9435 20.408 65.7875 19.82 65.4755 19.412C65.1755 19.004 64.6955 18.8 64.0355 18.8C63.3875 18.8 62.8475 19.028 62.4155 19.484C61.9955 19.94 61.7855 20.576 61.7855 21.392V26H59.4815ZM71.2499 29.96L73.3199 25.406H72.7799L69.3059 17.072H71.8079L74.3099 23.354L76.9199 17.072H79.3679L73.6979 29.96H71.2499ZM85.2172 26V13.4H89.8432C90.8512 13.4 91.6792 13.574 92.3272 13.922C92.9872 14.258 93.4792 14.72 93.8032 15.308C94.1272 15.884 94.2892 16.526 94.2892 17.234C94.2892 18.002 94.0852 18.704 93.6772 19.34C93.2812 19.976 92.6572 20.438 91.8052 20.726L94.4152 26H91.7692L89.4292 21.032H87.5212V26H85.2172ZM87.5212 19.34H89.6992C90.4672 19.34 91.0312 19.154 91.3912 18.782C91.7512 18.41 91.9312 17.918 91.9312 17.306C91.9312 16.706 91.7512 16.226 91.3912 15.866C91.0432 15.506 90.4732 15.326 89.6812 15.326H87.5212V19.34ZM100.171 26.216C99.2711 26.216 98.4731 26.024 97.7771 25.64C97.0811 25.256 96.5351 24.716 96.1391 24.02C95.7431 23.324 95.5451 22.52 95.5451 21.608C95.5451 20.684 95.7371 19.862 96.1211 19.142C96.5171 18.422 97.0571 17.864 97.7411 17.468C98.4371 17.06 99.2531 16.856 100.189 16.856C101.065 16.856 101.839 17.048 102.511 17.432C103.183 17.816 103.705 18.344 104.077 19.016C104.461 19.676 104.653 20.414 104.653 21.23C104.653 21.362 104.647 21.5 104.635 21.644C104.635 21.788 104.629 21.938 104.617 22.094H97.8311C97.8791 22.79 98.1191 23.336 98.5511 23.732C98.9951 24.128 99.5291 24.326 100.153 24.326C100.621 24.326 101.011 24.224 101.323 24.02C101.647 23.804 101.887 23.528 102.043 23.192H104.383C104.215 23.756 103.933 24.272 103.537 24.74C103.153 25.196 102.673 25.556 102.097 25.82C101.533 26.084 100.891 26.216 100.171 26.216ZM100.189 18.728C99.6251 18.728 99.1271 18.89 98.6951 19.214C98.2631 19.526 97.9871 20.006 97.8671 20.654H102.313C102.277 20.066 102.061 19.598 101.665 19.25C101.269 18.902 100.777 18.728 100.189 18.728ZM108.651 26L105.375 17.072H107.787L110.055 23.822L112.323 17.072H114.735L111.441 26H108.651ZM120.087 26.216C119.187 26.216 118.389 26.024 117.693 25.64C116.997 25.256 116.451 24.716 116.055 24.02C115.659 23.324 115.461 22.52 115.461 21.608C115.461 20.684 115.653 19.862 116.037 19.142C116.433 18.422 116.973 17.864 117.657 17.468C118.353 17.06 119.169 16.856 120.105 16.856C120.981 16.856 121.755 17.048 122.427 17.432C123.099 17.816 123.621 18.344 123.993 19.016C124.377 19.676 124.569 20.414 124.569 21.23C124.569 21.362 124.563 21.5 124.551 21.644C124.551 21.788 124.545 21.938 124.533 22.094H117.747C117.795 22.79 118.035 23.336 118.467 23.732C118.911 24.128 119.445 24.326 120.069 24.326C120.537 24.326 120.927 24.224 121.239 24.02C121.563 23.804 121.803 23.528 121.959 23.192H124.299C124.131 23.756 123.849 24.272 123.453 24.74C123.069 25.196 122.589 25.556 122.013 25.82C121.449 26.084 120.807 26.216 120.087 26.216ZM120.105 18.728C119.541 18.728 119.043 18.89 118.611 19.214C118.179 19.526 117.903 20.006 117.783 20.654H122.229C122.193 20.066 121.977 19.598 121.581 19.25C121.185 18.902 120.693 18.728 120.105 18.728ZM126.507 26V17.072H128.541L128.721 18.584C128.997 18.056 129.393 17.636 129.909 17.324C130.437 17.012 131.055 16.856 131.763 16.856C132.867 16.856 133.725 17.204 134.337 17.9C134.949 18.596 135.255 19.616 135.255 20.96V26H132.951V21.176C132.951 20.408 132.795 19.82 132.483 19.412C132.171 19.004 131.685 18.8 131.025 18.8C130.377 18.8 129.843 19.028 129.423 19.484C129.015 19.94 128.811 20.576 128.811 21.392V26H126.507ZM141.436 26C140.5 26 139.75 25.772 139.186 25.316C138.622 24.86 138.34 24.05 138.34 22.886V18.998H136.81V17.072H138.34L138.61 14.678H140.644V17.072H143.056V18.998H140.644V22.904C140.644 23.336 140.734 23.636 140.914 23.804C141.106 23.96 141.43 24.038 141.886 24.038H143.002V26H141.436Z" fill="#5E88F3"/>
</svg>
