<svg width="202" height="40" viewBox="0 0 202 40" fill="none" xmlns="http://www.w3.org/2000/svg">
<rect width="202" height="40" rx="20" fill="#F4F6FD"/>
<path d="M44.1794 26L40.8494 13.4H43.3154L45.5834 23.426L48.2474 13.4H50.7854L53.3774 23.426L55.6454 13.4H58.1294L54.7094 26H51.9734L49.4714 16.658L46.8974 26H44.1794ZM63.134 26.216C62.234 26.216 61.436 26.024 60.74 25.64C60.044 25.256 59.498 24.716 59.102 24.02C58.706 23.324 58.508 22.52 58.508 21.608C58.508 20.684 58.7 19.862 59.084 19.142C59.48 18.422 60.02 17.864 60.704 17.468C61.4 17.06 62.216 16.856 63.152 16.856C64.028 16.856 64.802 17.048 65.474 17.432C66.146 17.816 66.668 18.344 67.04 19.016C67.424 19.676 67.616 20.414 67.616 21.23C67.616 21.362 67.61 21.5 67.598 21.644C67.598 21.788 67.592 21.938 67.58 22.094H60.794C60.842 22.79 61.082 23.336 61.514 23.732C61.958 24.128 62.492 24.326 63.116 24.326C63.584 24.326 63.974 24.224 64.286 24.02C64.61 23.804 64.85 23.528 65.006 23.192H67.346C67.178 23.756 66.896 24.272 66.5 24.74C66.116 25.196 65.636 25.556 65.06 25.82C64.496 26.084 63.854 26.216 63.134 26.216ZM63.152 18.728C62.588 18.728 62.09 18.89 61.658 19.214C61.226 19.526 60.95 20.006 60.83 20.654H65.276C65.24 20.066 65.024 19.598 64.628 19.25C64.232 18.902 63.74 18.728 63.152 18.728ZM77.6229 23.336C77.1909 23.336 76.7889 23.288 76.4169 23.192L75.7509 23.858C75.9549 23.966 76.2309 24.056 76.5789 24.128C76.9269 24.2 77.4909 24.272 78.2709 24.344C79.4589 24.452 80.3229 24.734 80.8629 25.19C81.4029 25.646 81.6729 26.276 81.6729 27.08C81.6729 27.608 81.5289 28.106 81.2409 28.574C80.9529 29.054 80.5089 29.438 79.9089 29.726C79.3089 30.026 78.5409 30.176 77.6049 30.176C76.3329 30.176 75.3069 29.936 74.5269 29.456C73.7469 28.988 73.3569 28.28 73.3569 27.332C73.3569 26.528 73.7469 25.832 74.5269 25.244C74.2869 25.136 74.0769 25.022 73.8969 24.902C73.7289 24.782 73.5789 24.656 73.4469 24.524V24.11L75.0129 22.454C74.3169 21.842 73.9689 21.056 73.9689 20.096C73.9689 19.496 74.1129 18.95 74.4009 18.458C74.7009 17.966 75.1209 17.576 75.6609 17.288C76.2009 17 76.8549 16.856 77.6229 16.856C78.1269 16.856 78.5949 16.928 79.0269 17.072H82.4109V18.476L80.8809 18.584C81.1209 19.04 81.2409 19.544 81.2409 20.096C81.2409 20.696 81.0969 21.242 80.8089 21.734C80.5209 22.226 80.1009 22.616 79.5489 22.904C79.0089 23.192 78.3669 23.336 77.6229 23.336ZM77.6229 21.572C78.0909 21.572 78.4749 21.446 78.7749 21.194C79.0869 20.942 79.2429 20.582 79.2429 20.114C79.2429 19.646 79.0869 19.286 78.7749 19.034C78.4749 18.782 78.0909 18.656 77.6229 18.656C77.1309 18.656 76.7349 18.782 76.4349 19.034C76.1349 19.286 75.9849 19.646 75.9849 20.114C75.9849 20.582 76.1349 20.942 76.4349 21.194C76.7349 21.446 77.1309 21.572 77.6229 21.572ZM75.4629 27.098C75.4629 27.542 75.6669 27.872 76.0749 28.088C76.4949 28.316 77.0049 28.43 77.6049 28.43C78.1809 28.43 78.6489 28.31 79.0089 28.07C79.3689 27.842 79.5489 27.53 79.5489 27.134C79.5489 26.81 79.4289 26.54 79.1889 26.324C78.9609 26.108 78.4989 25.976 77.8029 25.928C77.3109 25.892 76.8549 25.838 76.4349 25.766C76.0869 25.958 75.8349 26.168 75.6789 26.396C75.5349 26.624 75.4629 26.858 75.4629 27.098ZM87.4389 26.216C86.3229 26.216 85.4589 25.868 84.8469 25.172C84.2469 24.476 83.9469 23.456 83.9469 22.112V17.072H86.2329V21.896C86.2329 22.664 86.3889 23.252 86.7009 23.66C87.0129 24.068 87.5049 24.272 88.1769 24.272C88.8129 24.272 89.3349 24.044 89.7429 23.588C90.1629 23.132 90.3729 22.496 90.3729 21.68V17.072H92.6769V26H90.6429L90.4629 24.488C90.1869 25.016 89.7849 25.436 89.2569 25.748C88.7409 26.06 88.1349 26.216 87.4389 26.216ZM98.1201 26.216C97.3521 26.216 96.7221 26.096 96.2301 25.856C95.7381 25.604 95.3721 25.274 95.1321 24.866C94.8921 24.458 94.7721 24.008 94.7721 23.516C94.7721 22.688 95.0961 22.016 95.7441 21.5C96.3921 20.984 97.3641 20.726 98.6601 20.726H100.928V20.51C100.928 19.898 100.754 19.448 100.406 19.16C100.058 18.872 99.6261 18.728 99.1101 18.728C98.6421 18.728 98.2341 18.842 97.8861 19.07C97.5381 19.286 97.3221 19.61 97.2381 20.042H94.9881C95.0481 19.394 95.2641 18.83 95.6361 18.35C96.0201 17.87 96.5121 17.504 97.1121 17.252C97.7121 16.988 98.3841 16.856 99.1281 16.856C100.4 16.856 101.402 17.174 102.134 17.81C102.866 18.446 103.232 19.346 103.232 20.51V26H101.27L101.054 24.56C100.79 25.04 100.418 25.436 99.9381 25.748C99.4701 26.06 98.8641 26.216 98.1201 26.216ZM98.6421 24.416C99.3021 24.416 99.8121 24.2 100.172 23.768C100.544 23.336 100.778 22.802 100.874 22.166H98.9121C98.3001 22.166 97.8621 22.28 97.5981 22.508C97.3341 22.724 97.2021 22.994 97.2021 23.318C97.2021 23.666 97.3341 23.936 97.5981 24.128C97.8621 24.32 98.2101 24.416 98.6421 24.416ZM105.431 26V17.072H107.483L107.699 18.746C108.023 18.17 108.461 17.714 109.013 17.378C109.577 17.03 110.237 16.856 110.993 16.856V19.286H110.345C109.841 19.286 109.391 19.364 108.995 19.52C108.599 19.676 108.287 19.946 108.059 20.33C107.843 20.714 107.735 21.248 107.735 21.932V26H105.431ZM115.645 26.216C114.877 26.216 114.247 26.096 113.755 25.856C113.263 25.604 112.897 25.274 112.657 24.866C112.417 24.458 112.297 24.008 112.297 23.516C112.297 22.688 112.621 22.016 113.269 21.5C113.917 20.984 114.889 20.726 116.185 20.726H118.453V20.51C118.453 19.898 118.279 19.448 117.931 19.16C117.583 18.872 117.151 18.728 116.635 18.728C116.167 18.728 115.759 18.842 115.411 19.07C115.063 19.286 114.847 19.61 114.763 20.042H112.513C112.573 19.394 112.789 18.83 113.161 18.35C113.545 17.87 114.037 17.504 114.637 17.252C115.237 16.988 115.909 16.856 116.653 16.856C117.925 16.856 118.927 17.174 119.659 17.81C120.391 18.446 120.757 19.346 120.757 20.51V26H118.795L118.579 24.56C118.315 25.04 117.943 25.436 117.463 25.748C116.995 26.06 116.389 26.216 115.645 26.216ZM116.167 24.416C116.827 24.416 117.337 24.2 117.697 23.768C118.069 23.336 118.303 22.802 118.399 22.166H116.437C115.825 22.166 115.387 22.28 115.123 22.508C114.859 22.724 114.727 22.994 114.727 23.318C114.727 23.666 114.859 23.936 115.123 24.128C115.387 24.32 115.735 24.416 116.167 24.416ZM122.956 26V17.072H124.99L125.17 18.584C125.446 18.056 125.842 17.636 126.358 17.324C126.886 17.012 127.504 16.856 128.212 16.856C129.316 16.856 130.174 17.204 130.786 17.9C131.398 18.596 131.704 19.616 131.704 20.96V26H129.4V21.176C129.4 20.408 129.244 19.82 128.932 19.412C128.62 19.004 128.134 18.8 127.474 18.8C126.826 18.8 126.292 19.028 125.872 19.484C125.464 19.94 125.26 20.576 125.26 21.392V26H122.956ZM137.885 26C136.949 26 136.199 25.772 135.635 25.316C135.071 24.86 134.789 24.05 134.789 22.886V18.998H133.259V17.072H134.789L135.059 14.678H137.093V17.072H139.505V18.998H137.093V22.904C137.093 23.336 137.183 23.636 137.363 23.804C137.555 23.96 137.879 24.038 138.335 24.038H139.451V26H137.885ZM145.593 26.216C144.693 26.216 143.895 26.024 143.199 25.64C142.503 25.256 141.957 24.716 141.561 24.02C141.165 23.324 140.967 22.52 140.967 21.608C140.967 20.684 141.159 19.862 141.543 19.142C141.939 18.422 142.479 17.864 143.163 17.468C143.859 17.06 144.675 16.856 145.611 16.856C146.487 16.856 147.261 17.048 147.933 17.432C148.605 17.816 149.127 18.344 149.499 19.016C149.883 19.676 150.075 20.414 150.075 21.23C150.075 21.362 150.069 21.5 150.057 21.644C150.057 21.788 150.051 21.938 150.039 22.094H143.253C143.301 22.79 143.541 23.336 143.973 23.732C144.417 24.128 144.951 24.326 145.575 24.326C146.043 24.326 146.433 24.224 146.745 24.02C147.069 23.804 147.309 23.528 147.465 23.192H149.805C149.637 23.756 149.355 24.272 148.959 24.74C148.575 25.196 148.095 25.556 147.519 25.82C146.955 26.084 146.313 26.216 145.593 26.216ZM145.611 18.728C145.047 18.728 144.549 18.89 144.117 19.214C143.685 19.526 143.409 20.006 143.289 20.654H147.735C147.699 20.066 147.483 19.598 147.087 19.25C146.691 18.902 146.199 18.728 145.611 18.728ZM156.351 26.216C155.451 26.216 154.653 26.024 153.957 25.64C153.261 25.256 152.715 24.716 152.319 24.02C151.923 23.324 151.725 22.52 151.725 21.608C151.725 20.684 151.917 19.862 152.301 19.142C152.697 18.422 153.237 17.864 153.921 17.468C154.617 17.06 155.433 16.856 156.369 16.856C157.245 16.856 158.019 17.048 158.691 17.432C159.363 17.816 159.885 18.344 160.257 19.016C160.641 19.676 160.833 20.414 160.833 21.23C160.833 21.362 160.827 21.5 160.815 21.644C160.815 21.788 160.809 21.938 160.797 22.094H154.011C154.059 22.79 154.299 23.336 154.731 23.732C155.175 24.128 155.709 24.326 156.333 24.326C156.801 24.326 157.191 24.224 157.503 24.02C157.827 23.804 158.067 23.528 158.223 23.192H160.563C160.395 23.756 160.113 24.272 159.717 24.74C159.333 25.196 158.853 25.556 158.277 25.82C157.713 26.084 157.071 26.216 156.351 26.216ZM156.369 18.728C155.805 18.728 155.307 18.89 154.875 19.214C154.443 19.526 154.167 20.006 154.047 20.654H158.493C158.457 20.066 158.241 19.598 157.845 19.25C157.449 18.902 156.957 18.728 156.369 18.728Z" fill="#7D97F4"/>
</svg>
