<svg width="127" height="30" viewBox="0 0 127 30" fill="none" xmlns="http://www.w3.org/2000/svg">
<path d="M0.949219 27.2031V2.88672C0.949219 2.35286 1.13151 1.90365 1.49609 1.53906C1.86068 1.17448 2.29688 0.992188 2.80469 0.992188H6.47656C6.98438 0.992188 7.41406 1.17448 7.76562 1.53906C8.13021 1.90365 8.3125 2.35286 8.3125 2.88672V23.4727H25.3242C25.832 23.4727 26.2617 23.6549 26.6133 24.0195C26.9779 24.3841 27.1602 24.8203 27.1602 25.3281V27.1641C27.1602 27.6719 26.9779 28.1081 26.6133 28.4727C26.2617 28.8242 25.832 29 25.3242 29H2.80469C2.29688 29 1.86068 28.8307 1.49609 28.4922C1.13151 28.1406 0.949219 27.7109 0.949219 27.2031ZM55.6172 26.1094C52.9609 28.4401 49.0547 29.6055 43.8984 29.6055C38.7552 29.6055 34.849 28.4401 32.1797 26.1094C29.5104 23.7656 28.1758 20.0612 28.1758 14.9961C28.1758 9.93099 29.5104 6.23307 32.1797 3.90234C34.849 1.57161 38.7552 0.40625 43.8984 0.40625C49.0547 0.40625 52.9609 1.57161 55.6172 3.90234C58.2865 6.23307 59.6211 9.93099 59.6211 14.9961C59.6211 20.0612 58.2865 23.7656 55.6172 26.1094ZM50.2852 8.02344C48.9701 6.46094 46.8411 5.67969 43.8984 5.67969C40.9688 5.67969 38.8398 6.46094 37.5117 8.02344C36.1966 9.58594 35.5391 11.9167 35.5391 15.0156C35.5391 18.1016 36.1966 20.4258 37.5117 21.9883C38.8398 23.5378 40.9688 24.3125 43.8984 24.3125C46.8411 24.3125 48.9701 23.5378 50.2852 21.9883C51.6003 20.4258 52.2578 18.1016 52.2578 15.0156C52.2578 11.9167 51.6003 9.58594 50.2852 8.02344ZM75.4609 29.1562C71.138 29.1562 67.8177 27.9909 65.5 25.6602C63.1953 23.3294 62.043 19.7682 62.043 14.9766C62.043 10.1719 63.2474 6.61719 65.6562 4.3125C68.0781 1.99479 71.7044 0.835938 76.5352 0.835938H80.8906C83.7682 0.835938 86.3594 1.52604 88.6641 2.90625C90.9818 4.27344 92.1406 5.98568 92.1406 8.04297C92.1406 8.8112 91.9128 9.36458 91.457 9.70312C91.0013 10.0286 90.5586 10.1914 90.1289 10.1914H87.8047C86.6849 10.1914 85.793 9.55339 85.1289 8.27734C84.4648 7.0013 82.8242 6.36328 80.207 6.36328H76.7305C73.8789 6.36328 71.9453 6.97526 70.9297 8.19922C69.9141 9.42318 69.4062 11.6758 69.4062 14.957C69.4062 18.2383 69.862 20.5104 70.7734 21.7734C71.6849 23.0234 73.3125 23.6484 75.6562 23.6484H79.6602C81.7565 23.6484 83.2539 23.2513 84.1523 22.457C85.0508 21.6497 85.513 20.4974 85.5391 19H81.125C80.6172 19 80.181 18.8242 79.8164 18.4727C79.4648 18.1081 79.2891 17.6719 79.2891 17.1641V15.6406C79.2891 15.1328 79.4648 14.7031 79.8164 14.3516C80.181 13.987 80.6172 13.8047 81.125 13.8047H90.9297C91.4375 13.8047 91.8672 13.987 92.2188 14.3516C92.5833 14.7031 92.7656 15.1328 92.7656 15.6406V17.8086C92.7656 21.4544 91.6719 24.2604 89.4844 26.2266C87.2969 28.1797 84.0872 29.1562 79.8555 29.1562H75.4609ZM122.609 26.1094C119.953 28.4401 116.047 29.6055 110.891 29.6055C105.747 29.6055 101.841 28.4401 99.1719 26.1094C96.5026 23.7656 95.168 20.0612 95.168 14.9961C95.168 9.93099 96.5026 6.23307 99.1719 3.90234C101.841 1.57161 105.747 0.40625 110.891 0.40625C116.047 0.40625 119.953 1.57161 122.609 3.90234C125.279 6.23307 126.613 9.93099 126.613 14.9961C126.613 20.0612 125.279 23.7656 122.609 26.1094ZM117.277 8.02344C115.962 6.46094 113.833 5.67969 110.891 5.67969C107.961 5.67969 105.832 6.46094 104.504 8.02344C103.189 9.58594 102.531 11.9167 102.531 15.0156C102.531 18.1016 103.189 20.4258 104.504 21.9883C105.832 23.5378 107.961 24.3125 110.891 24.3125C113.833 24.3125 115.962 23.5378 117.277 21.9883C118.592 20.4258 119.25 18.1016 119.25 15.0156C119.25 11.9167 118.592 9.58594 117.277 8.02344Z" fill="white"/>
</svg>
