<svg width="550" height="90" viewBox="0 0 550 90" fill="none" xmlns="http://www.w3.org/2000/svg">
<path d="M12.488 17H10.136L6.056 10.64H2.864V17H0.872V0.991999H7.304C8.792 0.991999 10 1.432 10.928 2.312C11.856 3.192 12.32 4.36 12.32 5.816C12.32 7.192 11.92 8.288 11.12 9.104C10.32 9.92 9.336 10.376 8.168 10.472L12.488 17ZM7.064 8.888C8.008 8.888 8.776 8.6 9.368 8.024C9.96 7.448 10.256 6.712 10.256 5.816C10.256 4.92 9.96 4.192 9.368 3.632C8.776 3.056 8.008 2.768 7.064 2.768H2.864V8.888H7.064ZM19.907 17.288C18.179 17.288 16.763 16.728 15.659 15.608C14.555 14.472 14.003 13 14.003 11.192C14.003 9.496 14.547 8.064 15.635 6.896C16.723 5.712 18.083 5.12 19.715 5.12C21.427 5.12 22.779 5.712 23.771 6.896C24.779 8.064 25.283 9.544 25.283 11.336V11.792H15.899C15.979 12.928 16.395 13.88 17.147 14.648C17.899 15.416 18.875 15.8 20.075 15.8C21.515 15.8 22.707 15.312 23.651 14.336L24.515 15.512C23.331 16.696 21.795 17.288 19.907 17.288ZM23.507 10.472C23.491 9.48 23.155 8.592 22.499 7.808C21.843 7.008 20.907 6.608 19.691 6.608C18.539 6.608 17.627 7 16.955 7.784C16.299 8.568 15.947 9.464 15.899 10.472H23.507ZM33.2624 17H31.2944L26.4704 5.408H28.4144L32.2784 14.912L36.1184 5.408H38.0864L33.2624 17ZM45.1961 17.288C43.4681 17.288 42.0521 16.728 40.9481 15.608C39.8441 14.472 39.2921 13 39.2921 11.192C39.2921 9.496 39.8361 8.064 40.9241 6.896C42.0121 5.712 43.3721 5.12 45.0041 5.12C46.7161 5.12 48.0681 5.712 49.0601 6.896C50.0681 8.064 50.5721 9.544 50.5721 11.336V11.792H41.1881C41.2681 12.928 41.6841 13.88 42.4361 14.648C43.1881 15.416 44.1641 15.8 45.3641 15.8C46.8041 15.8 47.9961 15.312 48.9401 14.336L49.8041 15.512C48.6201 16.696 47.0841 17.288 45.1961 17.288ZM48.7961 10.472C48.7801 9.48 48.4441 8.592 47.7881 7.808C47.1321 7.008 46.1961 6.608 44.9801 6.608C43.8281 6.608 42.9161 7 42.2441 7.784C41.5881 8.568 41.2361 9.464 41.1881 10.472H48.7961ZM63.1115 17H61.3115V9.416C61.3115 8.44 61.0875 7.752 60.6395 7.352C60.1915 6.936 59.5515 6.728 58.7195 6.728C58.0475 6.728 57.3915 6.904 56.7515 7.256C56.1275 7.608 55.6395 8.032 55.2875 8.528V17H53.4875V5.408H55.2875V7.088C55.7355 6.56 56.3355 6.104 57.0875 5.72C57.8395 5.32 58.6155 5.12 59.4155 5.12C61.8795 5.12 63.1115 6.368 63.1115 8.864V17ZM69.6343 17.288C68.7863 17.288 68.1463 17.056 67.7143 16.592C67.2823 16.128 67.0663 15.456 67.0663 14.576V6.992H65.1463V5.408H67.0663V2.24H68.8663V5.408H71.2183V6.992H68.8663V14.192C68.8663 14.64 68.9623 15 69.1543 15.272C69.3623 15.544 69.6583 15.68 70.0423 15.68C70.5703 15.68 70.9783 15.52 71.2663 15.2L71.7943 16.544C71.2663 17.04 70.5463 17.288 69.6343 17.288ZM80.8364 3.752C80.5164 3.752 80.2364 3.64 79.9964 3.416C79.7564 3.176 79.6364 2.888 79.6364 2.552C79.6364 2.216 79.7564 1.928 79.9964 1.688C80.2364 1.448 80.5164 1.328 80.8364 1.328C81.1724 1.328 81.4604 1.448 81.7004 1.688C81.9404 1.928 82.0604 2.216 82.0604 2.552C82.0604 2.888 81.9404 3.176 81.7004 3.416C81.4604 3.64 81.1724 3.752 80.8364 3.752ZM81.7484 17H79.9484V5.408H81.7484V17ZM89.0111 17.288C87.0431 17.288 85.4831 16.68 84.3311 15.464L85.2671 14.168C85.6671 14.632 86.2111 15.024 86.8991 15.344C87.6031 15.664 88.3311 15.824 89.0831 15.824C89.9471 15.824 90.6191 15.64 91.0991 15.272C91.5791 14.904 91.8191 14.424 91.8191 13.832C91.8191 13.32 91.5711 12.92 91.0751 12.632C90.5791 12.328 89.9791 12.104 89.2751 11.96C88.5871 11.8 87.8911 11.624 87.1871 11.432C86.4831 11.224 85.8831 10.88 85.3871 10.4C84.8911 9.904 84.6431 9.256 84.6431 8.456C84.6431 7.512 85.0271 6.72 85.7951 6.08C86.5791 5.44 87.6351 5.12 88.9631 5.12C90.7071 5.12 92.1391 5.68 93.2591 6.8L92.4191 8.048C91.6031 7.072 90.4511 6.584 88.9631 6.584C88.1791 6.584 87.5551 6.76 87.0911 7.112C86.6271 7.448 86.3951 7.88 86.3951 8.408C86.3951 8.872 86.6431 9.24 87.1391 9.512C87.6351 9.768 88.2271 9.976 88.9151 10.136C89.6191 10.28 90.3231 10.456 91.0271 10.664C91.7311 10.872 92.3311 11.24 92.8271 11.768C93.3231 12.28 93.5711 12.952 93.5711 13.784C93.5711 14.808 93.1711 15.648 92.3711 16.304C91.5711 16.96 90.4511 17.288 89.0111 17.288ZM112.883 17H111.083V15.272C110.091 16.616 108.787 17.288 107.171 17.288C105.635 17.288 104.387 16.744 103.427 15.656C102.483 14.552 102.011 13.072 102.011 11.216C102.011 9.376 102.483 7.904 103.427 6.8C104.387 5.68 105.635 5.12 107.171 5.12C108.771 5.12 110.075 5.8 111.083 7.16V0.991999H112.883V17ZM107.603 15.68C108.307 15.68 108.979 15.504 109.619 15.152C110.259 14.8 110.747 14.368 111.083 13.856V8.6C110.747 8.072 110.251 7.632 109.595 7.28C108.955 6.912 108.291 6.728 107.603 6.728C106.467 6.728 105.563 7.152 104.891 8C104.219 8.832 103.883 9.904 103.883 11.216C103.883 12.528 104.219 13.6 104.891 14.432C105.563 15.264 106.467 15.68 107.603 15.68ZM121.72 17.288C119.992 17.288 118.576 16.728 117.472 15.608C116.368 14.472 115.816 13 115.816 11.192C115.816 9.496 116.36 8.064 117.448 6.896C118.536 5.712 119.896 5.12 121.528 5.12C123.24 5.12 124.592 5.712 125.584 6.896C126.592 8.064 127.096 9.544 127.096 11.336V11.792H117.712C117.792 12.928 118.208 13.88 118.96 14.648C119.712 15.416 120.688 15.8 121.888 15.8C123.328 15.8 124.52 15.312 125.464 14.336L126.328 15.512C125.144 16.696 123.608 17.288 121.72 17.288ZM125.32 10.472C125.304 9.48 124.968 8.592 124.312 7.808C123.656 7.008 122.72 6.608 121.504 6.608C120.352 6.608 119.44 7 118.768 7.784C118.112 8.568 117.76 9.464 117.712 10.472H125.32ZM140.211 17H138.411V15.272C137.419 16.616 136.115 17.288 134.499 17.288C132.963 17.288 131.715 16.744 130.755 15.656C129.811 14.552 129.339 13.072 129.339 11.216C129.339 9.376 129.811 7.904 130.755 6.8C131.715 5.68 132.963 5.12 134.499 5.12C136.099 5.12 137.403 5.8 138.411 7.16V0.991999H140.211V17ZM134.931 15.68C135.635 15.68 136.307 15.504 136.947 15.152C137.587 14.8 138.075 14.368 138.411 13.856V8.6C138.075 8.072 137.579 7.632 136.923 7.28C136.283 6.912 135.619 6.728 134.931 6.728C133.795 6.728 132.891 7.152 132.219 8C131.547 8.832 131.211 9.904 131.211 11.216C131.211 12.528 131.547 13.6 132.219 14.432C132.891 15.264 133.795 15.68 134.931 15.68ZM144.704 3.752C144.384 3.752 144.104 3.64 143.864 3.416C143.624 3.176 143.504 2.888 143.504 2.552C143.504 2.216 143.624 1.928 143.864 1.688C144.104 1.448 144.384 1.328 144.704 1.328C145.04 1.328 145.328 1.448 145.568 1.688C145.808 1.928 145.928 2.216 145.928 2.552C145.928 2.888 145.808 3.176 145.568 3.416C145.328 3.64 145.04 3.752 144.704 3.752ZM145.616 17H143.816V5.408H145.616V17ZM154.318 17.288C152.606 17.288 151.214 16.712 150.142 15.56C149.07 14.392 148.534 12.936 148.534 11.192C148.534 9.448 149.07 8 150.142 6.848C151.214 5.696 152.606 5.12 154.318 5.12C156.11 5.12 157.526 5.792 158.566 7.136L157.366 8.24C156.63 7.232 155.646 6.728 154.414 6.728C153.198 6.728 152.222 7.144 151.486 7.976C150.766 8.808 150.406 9.88 150.406 11.192C150.406 12.504 150.766 13.584 151.486 14.432C152.222 15.264 153.198 15.68 154.414 15.68C155.63 15.68 156.614 15.176 157.366 14.168L158.566 15.272C157.526 16.616 156.11 17.288 154.318 17.288ZM170.137 17H168.337V15.68C167.361 16.752 166.081 17.288 164.497 17.288C163.425 17.288 162.481 16.944 161.665 16.256C160.849 15.568 160.441 14.632 160.441 13.448C160.441 12.232 160.841 11.296 161.641 10.64C162.457 9.968 163.409 9.632 164.497 9.632C166.145 9.632 167.425 10.16 168.337 11.216V9.128C168.337 8.36 168.065 7.76 167.521 7.328C166.977 6.896 166.273 6.68 165.409 6.68C164.049 6.68 162.865 7.216 161.857 8.288L161.017 7.04C162.249 5.76 163.793 5.12 165.649 5.12C166.977 5.12 168.057 5.44 168.889 6.08C169.721 6.72 170.137 7.704 170.137 9.032V17ZM165.145 15.992C166.585 15.992 167.649 15.512 168.337 14.552V12.368C167.649 11.408 166.585 10.928 165.145 10.928C164.313 10.928 163.625 11.168 163.081 11.648C162.553 12.112 162.289 12.72 162.289 13.472C162.289 14.208 162.553 14.816 163.081 15.296C163.625 15.76 164.313 15.992 165.145 15.992ZM176.673 17.288C175.825 17.288 175.185 17.056 174.753 16.592C174.321 16.128 174.105 15.456 174.105 14.576V6.992H172.185V5.408H174.105V2.24H175.905V5.408H178.257V6.992H175.905V14.192C175.905 14.64 176.001 15 176.193 15.272C176.401 15.544 176.697 15.68 177.081 15.68C177.609 15.68 178.017 15.52 178.305 15.2L178.833 16.544C178.305 17.04 177.585 17.288 176.673 17.288ZM186.032 17.288C184.304 17.288 182.888 16.728 181.784 15.608C180.68 14.472 180.128 13 180.128 11.192C180.128 9.496 180.672 8.064 181.76 6.896C182.848 5.712 184.208 5.12 185.84 5.12C187.552 5.12 188.904 5.712 189.896 6.896C190.904 8.064 191.408 9.544 191.408 11.336V11.792H182.024C182.104 12.928 182.52 13.88 183.272 14.648C184.024 15.416 185 15.8 186.2 15.8C187.64 15.8 188.832 15.312 189.776 14.336L190.64 15.512C189.456 16.696 187.92 17.288 186.032 17.288ZM189.632 10.472C189.616 9.48 189.28 8.592 188.624 7.808C187.968 7.008 187.032 6.608 185.816 6.608C184.664 6.608 183.752 7 183.08 7.784C182.424 8.568 182.072 9.464 182.024 10.472H189.632ZM204.523 17H202.723V15.272C201.731 16.616 200.427 17.288 198.811 17.288C197.275 17.288 196.027 16.744 195.067 15.656C194.123 14.552 193.651 13.072 193.651 11.216C193.651 9.376 194.123 7.904 195.067 6.8C196.027 5.68 197.275 5.12 198.811 5.12C200.411 5.12 201.715 5.8 202.723 7.16V0.991999H204.523V17ZM199.243 15.68C199.947 15.68 200.619 15.504 201.259 15.152C201.899 14.8 202.387 14.368 202.723 13.856V8.6C202.387 8.072 201.891 7.632 201.235 7.28C200.595 6.912 199.931 6.728 199.243 6.728C198.107 6.728 197.203 7.152 196.531 8C195.859 8.832 195.523 9.904 195.523 11.216C195.523 12.528 195.859 13.6 196.531 14.432C197.203 15.264 198.107 15.68 199.243 15.68ZM217.244 17.288C216.396 17.288 215.756 17.056 215.324 16.592C214.892 16.128 214.676 15.456 214.676 14.576V6.992H212.756V5.408H214.676V2.24H216.476V5.408H218.828V6.992H216.476V14.192C216.476 14.64 216.572 15 216.764 15.272C216.972 15.544 217.268 15.68 217.652 15.68C218.18 15.68 218.588 15.52 218.876 15.2L219.404 16.544C218.876 17.04 218.156 17.288 217.244 17.288ZM230.586 15.536C229.546 16.704 228.162 17.288 226.434 17.288C224.706 17.288 223.314 16.704 222.258 15.536C221.218 14.368 220.698 12.92 220.698 11.192C220.698 9.464 221.218 8.024 222.258 6.872C223.314 5.704 224.706 5.12 226.434 5.12C228.162 5.12 229.546 5.704 230.586 6.872C231.642 8.024 232.17 9.464 232.17 11.192C232.17 12.92 231.642 14.368 230.586 15.536ZM223.602 14.384C224.306 15.248 225.25 15.68 226.434 15.68C227.618 15.68 228.554 15.248 229.242 14.384C229.93 13.504 230.274 12.44 230.274 11.192C230.274 9.944 229.93 8.888 229.242 8.024C228.554 7.16 227.618 6.728 226.434 6.728C225.25 6.728 224.306 7.168 223.602 8.048C222.914 8.912 222.57 9.96 222.57 11.192C222.57 12.44 222.914 13.504 223.602 14.384ZM246.524 17.288C244.796 17.288 243.38 16.728 242.276 15.608C241.172 14.472 240.62 13 240.62 11.192C240.62 9.496 241.164 8.064 242.252 6.896C243.34 5.712 244.7 5.12 246.332 5.12C248.044 5.12 249.396 5.712 250.388 6.896C251.396 8.064 251.9 9.544 251.9 11.336V11.792H242.516C242.596 12.928 243.012 13.88 243.764 14.648C244.516 15.416 245.492 15.8 246.692 15.8C248.132 15.8 249.324 15.312 250.268 14.336L251.132 15.512C249.948 16.696 248.412 17.288 246.524 17.288ZM250.124 10.472C250.108 9.48 249.772 8.592 249.116 7.808C248.46 7.008 247.524 6.608 246.308 6.608C245.156 6.608 244.244 7 243.572 7.784C242.916 8.568 242.564 9.464 242.516 10.472H250.124ZM264.44 17H262.64V9.416C262.64 8.44 262.416 7.752 261.968 7.352C261.52 6.936 260.88 6.728 260.048 6.728C259.376 6.728 258.72 6.904 258.08 7.256C257.456 7.608 256.968 8.032 256.616 8.528V17H254.816V5.408H256.616V7.088C257.064 6.56 257.664 6.104 258.416 5.72C259.168 5.32 259.944 5.12 260.744 5.12C263.208 5.12 264.44 6.368 264.44 8.864V17ZM277.082 17H275.282V15.68C274.306 16.752 273.026 17.288 271.442 17.288C270.37 17.288 269.426 16.944 268.61 16.256C267.794 15.568 267.386 14.632 267.386 13.448C267.386 12.232 267.786 11.296 268.586 10.64C269.402 9.968 270.354 9.632 271.442 9.632C273.09 9.632 274.37 10.16 275.282 11.216V9.128C275.282 8.36 275.01 7.76 274.466 7.328C273.922 6.896 273.218 6.68 272.354 6.68C270.994 6.68 269.81 7.216 268.802 8.288L267.962 7.04C269.194 5.76 270.738 5.12 272.594 5.12C273.922 5.12 275.002 5.44 275.834 6.08C276.666 6.72 277.082 7.704 277.082 9.032V17ZM272.09 15.992C273.53 15.992 274.594 15.512 275.282 14.552V12.368C274.594 11.408 273.53 10.928 272.09 10.928C271.258 10.928 270.57 11.168 270.026 11.648C269.498 12.112 269.234 12.72 269.234 13.472C269.234 14.208 269.498 14.816 270.026 15.296C270.57 15.76 271.258 15.992 272.09 15.992ZM282.491 13.856C282.811 14.368 283.291 14.8 283.931 15.152C284.587 15.504 285.259 15.68 285.947 15.68C287.099 15.68 288.011 15.264 288.683 14.432C289.355 13.6 289.691 12.528 289.691 11.216C289.691 9.904 289.355 8.832 288.683 8C288.011 7.152 287.099 6.728 285.947 6.728C285.259 6.728 284.587 6.912 283.931 7.28C283.291 7.632 282.811 8.072 282.491 8.6V13.856ZM282.491 17H280.691V0.991999H282.491V7.16C283.499 5.8 284.803 5.12 286.403 5.12C287.923 5.12 289.163 5.68 290.123 6.8C291.083 7.904 291.563 9.376 291.563 11.216C291.563 13.072 291.083 14.552 290.123 15.656C289.179 16.744 287.939 17.288 286.403 17.288C284.787 17.288 283.483 16.616 282.491 15.272V17ZM296.295 17H294.495V0.991999H296.295V17ZM300.774 3.752C300.454 3.752 300.174 3.64 299.934 3.416C299.694 3.176 299.574 2.888 299.574 2.552C299.574 2.216 299.694 1.928 299.934 1.688C300.174 1.448 300.454 1.328 300.774 1.328C301.11 1.328 301.398 1.448 301.638 1.688C301.878 1.928 301.998 2.216 301.998 2.552C301.998 2.888 301.878 3.176 301.638 3.416C301.398 3.64 301.11 3.752 300.774 3.752ZM301.686 17H299.886V5.408H301.686V17ZM314.901 17H313.101V9.416C313.101 8.44 312.877 7.752 312.429 7.352C311.981 6.936 311.341 6.728 310.509 6.728C309.837 6.728 309.181 6.904 308.541 7.256C307.917 7.608 307.429 8.032 307.077 8.528V17H305.277V5.408H307.077V7.088C307.525 6.56 308.125 6.104 308.877 5.72C309.629 5.32 310.405 5.12 311.205 5.12C313.669 5.12 314.901 6.368 314.901 8.864V17ZM323.151 21.704C322.127 21.704 321.255 21.576 320.535 21.32C319.815 21.08 319.127 20.632 318.471 19.976L319.383 18.632C320.263 19.688 321.519 20.216 323.151 20.216C324.223 20.216 325.111 19.928 325.815 19.352C326.519 18.792 326.871 17.92 326.871 16.736V15.08C326.439 15.688 325.879 16.184 325.191 16.568C324.503 16.952 323.767 17.144 322.983 17.144C321.447 17.144 320.199 16.608 319.239 15.536C318.295 14.448 317.823 12.984 317.823 11.144C317.823 9.304 318.295 7.84 319.239 6.752C320.199 5.664 321.447 5.12 322.983 5.12C324.567 5.12 325.863 5.8 326.871 7.16V5.408H328.671V16.664C328.671 18.44 328.151 19.72 327.111 20.504C326.071 21.304 324.751 21.704 323.151 21.704ZM323.415 15.56C324.103 15.56 324.767 15.376 325.407 15.008C326.063 14.64 326.551 14.192 326.871 13.664V8.6C326.551 8.072 326.071 7.632 325.431 7.28C324.791 6.912 324.119 6.728 323.415 6.728C322.263 6.728 321.351 7.136 320.679 7.952C320.023 8.768 319.695 9.832 319.695 11.144C319.695 12.44 320.031 13.504 320.703 14.336C321.375 15.152 322.279 15.56 323.415 15.56ZM340.768 17H338.968V6.992H337.048V5.408H338.968V4.52C338.968 3.336 339.272 2.416 339.88 1.76C340.488 1.088 341.304 0.751999 342.328 0.751999C343.064 0.751999 343.648 0.887999 344.08 1.16L343.624 2.528C343.32 2.336 342.976 2.24 342.592 2.24C342 2.24 341.544 2.44 341.224 2.84C340.92 3.224 340.768 3.784 340.768 4.52V5.408H343.12V6.992H340.768V17ZM346.144 3.752C345.824 3.752 345.544 3.64 345.304 3.416C345.064 3.176 344.944 2.888 344.944 2.552C344.944 2.216 345.064 1.928 345.304 1.688C345.544 1.448 345.824 1.328 346.144 1.328C346.48 1.328 346.768 1.448 347.008 1.688C347.248 1.928 347.368 2.216 347.368 2.552C347.368 2.888 347.248 3.176 347.008 3.416C346.768 3.64 346.48 3.752 346.144 3.752ZM347.056 17H345.256V5.408H347.056V17ZM360.299 17H358.499V9.416C358.499 8.44 358.275 7.752 357.827 7.352C357.379 6.936 356.739 6.728 355.907 6.728C355.235 6.728 354.579 6.904 353.939 7.256C353.315 7.608 352.827 8.032 352.475 8.528V17H350.675V5.408H352.475V7.088C352.923 6.56 353.523 6.104 354.275 5.72C355.027 5.32 355.803 5.12 356.603 5.12C359.067 5.12 360.299 6.368 360.299 8.864V17ZM372.942 17H371.142V15.68C370.166 16.752 368.886 17.288 367.302 17.288C366.23 17.288 365.286 16.944 364.47 16.256C363.654 15.568 363.246 14.632 363.246 13.448C363.246 12.232 363.646 11.296 364.446 10.64C365.262 9.968 366.214 9.632 367.302 9.632C368.95 9.632 370.23 10.16 371.142 11.216V9.128C371.142 8.36 370.87 7.76 370.326 7.328C369.782 6.896 369.078 6.68 368.214 6.68C366.854 6.68 365.67 7.216 364.662 8.288L363.822 7.04C365.054 5.76 366.598 5.12 368.454 5.12C369.782 5.12 370.862 5.44 371.694 6.08C372.526 6.72 372.942 7.704 372.942 9.032V17ZM367.95 15.992C369.39 15.992 370.454 15.512 371.142 14.552V12.368C370.454 11.408 369.39 10.928 367.95 10.928C367.118 10.928 366.43 11.168 365.886 11.648C365.358 12.112 365.094 12.72 365.094 13.472C365.094 14.208 365.358 14.816 365.886 15.296C366.43 15.76 367.118 15.992 367.95 15.992ZM386.174 17H384.374V9.416C384.374 8.44 384.15 7.752 383.702 7.352C383.254 6.936 382.614 6.728 381.782 6.728C381.11 6.728 380.454 6.904 379.814 7.256C379.19 7.608 378.702 8.032 378.35 8.528V17H376.55V5.408H378.35V7.088C378.798 6.56 379.398 6.104 380.15 5.72C380.902 5.32 381.678 5.12 382.478 5.12C384.942 5.12 386.174 6.368 386.174 8.864V17ZM394.881 17.288C393.169 17.288 391.777 16.712 390.705 15.56C389.633 14.392 389.097 12.936 389.097 11.192C389.097 9.448 389.633 8 390.705 6.848C391.777 5.696 393.169 5.12 394.881 5.12C396.673 5.12 398.089 5.792 399.129 7.136L397.929 8.24C397.193 7.232 396.209 6.728 394.977 6.728C393.761 6.728 392.785 7.144 392.049 7.976C391.329 8.808 390.969 9.88 390.969 11.192C390.969 12.504 391.329 13.584 392.049 14.432C392.785 15.264 393.761 15.68 394.977 15.68C396.193 15.68 397.177 15.176 397.929 14.168L399.129 15.272C398.089 16.616 396.673 17.288 394.881 17.288ZM402.54 3.752C402.22 3.752 401.94 3.64 401.7 3.416C401.46 3.176 401.34 2.888 401.34 2.552C401.34 2.216 401.46 1.928 401.7 1.688C401.94 1.448 402.22 1.328 402.54 1.328C402.876 1.328 403.164 1.448 403.404 1.688C403.644 1.928 403.764 2.216 403.764 2.552C403.764 2.888 403.644 3.176 403.404 3.416C403.164 3.64 402.876 3.752 402.54 3.752ZM403.452 17H401.652V5.408H403.452V17ZM416.09 17H414.29V15.68C413.314 16.752 412.034 17.288 410.45 17.288C409.378 17.288 408.434 16.944 407.618 16.256C406.802 15.568 406.394 14.632 406.394 13.448C406.394 12.232 406.794 11.296 407.594 10.64C408.41 9.968 409.362 9.632 410.45 9.632C412.098 9.632 413.378 10.16 414.29 11.216V9.128C414.29 8.36 414.018 7.76 413.474 7.328C412.93 6.896 412.226 6.68 411.362 6.68C410.002 6.68 408.818 7.216 407.81 8.288L406.97 7.04C408.202 5.76 409.746 5.12 411.602 5.12C412.93 5.12 414.01 5.44 414.842 6.08C415.674 6.72 416.09 7.704 416.09 9.032V17ZM411.098 15.992C412.538 15.992 413.602 15.512 414.29 14.552V12.368C413.602 11.408 412.538 10.928 411.098 10.928C410.266 10.928 409.578 11.168 409.034 11.648C408.506 12.112 408.242 12.72 408.242 13.472C408.242 14.208 408.506 14.816 409.034 15.296C409.578 15.76 410.266 15.992 411.098 15.992ZM421.498 17H419.698V0.991999H421.498V17ZM433.581 17H431.781V6.992H429.861V5.408H431.781V4.52C431.781 3.336 432.077 2.416 432.669 1.76C433.277 1.088 434.101 0.751999 435.141 0.751999C436.133 0.751999 436.949 1.048 437.589 1.64L436.845 2.816C436.413 2.432 435.933 2.24 435.405 2.24C434.813 2.24 434.357 2.44 434.037 2.84C433.733 3.224 433.581 3.784 433.581 4.52V5.408H435.933V6.992H433.581V17ZM439.873 17H438.073V5.408H439.873V7.28C440.945 5.872 442.233 5.168 443.737 5.168V7.016C443.513 6.968 443.273 6.944 443.017 6.944C442.473 6.944 441.881 7.136 441.241 7.52C440.601 7.904 440.145 8.328 439.873 8.792V17ZM451.227 17.288C449.499 17.288 448.083 16.728 446.979 15.608C445.875 14.472 445.323 13 445.323 11.192C445.323 9.496 445.867 8.064 446.955 6.896C448.043 5.712 449.403 5.12 451.035 5.12C452.747 5.12 454.099 5.712 455.091 6.896C456.099 8.064 456.603 9.544 456.603 11.336V11.792H447.219C447.299 12.928 447.715 13.88 448.467 14.648C449.219 15.416 450.195 15.8 451.395 15.8C452.835 15.8 454.027 15.312 454.971 14.336L455.835 15.512C454.651 16.696 453.115 17.288 451.227 17.288ZM454.827 10.472C454.811 9.48 454.475 8.592 453.819 7.808C453.163 7.008 452.227 6.608 451.011 6.608C449.859 6.608 448.947 7 448.275 7.784C447.619 8.568 447.267 9.464 447.219 10.472H454.827ZM464.751 17.288C463.023 17.288 461.607 16.728 460.503 15.608C459.399 14.472 458.847 13 458.847 11.192C458.847 9.496 459.391 8.064 460.479 6.896C461.567 5.712 462.927 5.12 464.559 5.12C466.271 5.12 467.623 5.712 468.615 6.896C469.623 8.064 470.127 9.544 470.127 11.336V11.792H460.743C460.823 12.928 461.239 13.88 461.991 14.648C462.743 15.416 463.719 15.8 464.919 15.8C466.359 15.8 467.551 15.312 468.495 14.336L469.359 15.512C468.175 16.696 466.639 17.288 464.751 17.288ZM468.351 10.472C468.335 9.48 467.999 8.592 467.343 7.808C466.687 7.008 465.751 6.608 464.535 6.608C463.383 6.608 462.471 7 461.799 7.784C461.143 8.568 460.791 9.464 460.743 10.472H468.351ZM483.242 17H481.442V15.272C480.45 16.616 479.146 17.288 477.53 17.288C475.994 17.288 474.746 16.744 473.786 15.656C472.842 14.552 472.37 13.072 472.37 11.216C472.37 9.376 472.842 7.904 473.786 6.8C474.746 5.68 475.994 5.12 477.53 5.12C479.13 5.12 480.434 5.8 481.442 7.16V0.991999H483.242V17ZM477.962 15.68C478.666 15.68 479.338 15.504 479.978 15.152C480.618 14.8 481.106 14.368 481.442 13.856V8.6C481.106 8.072 480.61 7.632 479.954 7.28C479.314 6.912 478.65 6.728 477.962 6.728C476.826 6.728 475.922 7.152 475.25 8C474.578 8.832 474.242 9.904 474.242 11.216C474.242 12.528 474.578 13.6 475.25 14.432C475.922 15.264 476.826 15.68 477.962 15.68ZM496.063 15.536C495.023 16.704 493.639 17.288 491.911 17.288C490.183 17.288 488.791 16.704 487.735 15.536C486.695 14.368 486.175 12.92 486.175 11.192C486.175 9.464 486.695 8.024 487.735 6.872C488.791 5.704 490.183 5.12 491.911 5.12C493.639 5.12 495.023 5.704 496.063 6.872C497.119 8.024 497.647 9.464 497.647 11.192C497.647 12.92 497.119 14.368 496.063 15.536ZM489.079 14.384C489.783 15.248 490.727 15.68 491.911 15.68C493.095 15.68 494.031 15.248 494.719 14.384C495.407 13.504 495.751 12.44 495.751 11.192C495.751 9.944 495.407 8.888 494.719 8.024C494.031 7.16 493.095 6.728 491.911 6.728C490.727 6.728 489.783 7.168 489.079 8.048C488.391 8.912 488.047 9.96 488.047 11.192C488.047 12.44 488.391 13.504 489.079 14.384ZM516.373 17H514.573V9.128C514.573 7.528 513.861 6.728 512.437 6.728C511.861 6.728 511.285 6.904 510.709 7.256C510.133 7.608 509.685 8.024 509.365 8.504V17H507.565V9.128C507.565 7.528 506.853 6.728 505.429 6.728C504.869 6.728 504.301 6.904 503.725 7.256C503.165 7.608 502.717 8.032 502.381 8.528V17H500.581V5.408H502.381V7.088C502.669 6.64 503.173 6.2 503.893 5.768C504.613 5.336 505.357 5.12 506.125 5.12C506.973 5.12 507.661 5.32 508.189 5.72C508.717 6.12 509.069 6.64 509.245 7.28C509.597 6.704 510.133 6.2 510.853 5.768C511.573 5.336 512.333 5.12 513.133 5.12C515.293 5.12 516.373 6.288 516.373 8.624V17ZM527.952 13.856C528.272 14.368 528.752 14.8 529.392 15.152C530.048 15.504 530.72 15.68 531.408 15.68C532.56 15.68 533.472 15.264 534.144 14.432C534.816 13.6 535.152 12.528 535.152 11.216C535.152 9.904 534.816 8.832 534.144 8C533.472 7.152 532.56 6.728 531.408 6.728C530.72 6.728 530.048 6.912 529.392 7.28C528.752 7.632 528.272 8.072 527.952 8.6V13.856ZM527.952 17H526.152V0.991999H527.952V7.16C528.96 5.8 530.264 5.12 531.864 5.12C533.384 5.12 534.624 5.68 535.584 6.8C536.544 7.904 537.024 9.376 537.024 11.216C537.024 13.072 536.544 14.552 535.584 15.656C534.64 16.744 533.4 17.288 531.864 17.288C530.248 17.288 528.944 16.616 527.952 15.272V17ZM539.308 21.536L539.596 19.904C539.884 20.032 540.212 20.096 540.58 20.096C540.996 20.096 541.34 20.008 541.612 19.832C541.884 19.656 542.116 19.336 542.308 18.872L543.076 17.12L538.228 5.408H540.172L544.036 14.912L547.876 5.408H549.844L544.036 19.352C543.396 20.888 542.26 21.672 540.628 21.704C540.148 21.704 539.708 21.648 539.308 21.536ZM6.512 53.288C4.88 53.288 3.576 52.608 2.6 51.248V57.416H0.8V41.408H2.6V43.136C3.032 42.528 3.592 42.04 4.28 41.672C4.968 41.304 5.712 41.12 6.512 41.12C8.048 41.12 9.288 41.672 10.232 42.776C11.192 43.864 11.672 45.336 11.672 47.192C11.672 49.048 11.192 50.528 10.232 51.632C9.288 52.736 8.048 53.288 6.512 53.288ZM6.056 51.68C7.192 51.68 8.096 51.264 8.768 50.432C9.44 49.584 9.776 48.504 9.776 47.192C9.776 45.88 9.44 44.808 8.768 43.976C8.096 43.144 7.192 42.728 6.056 42.728C5.368 42.728 4.696 42.912 4.04 43.28C3.4 43.632 2.92 44.064 2.6 44.576V49.808C2.92 50.336 3.4 50.784 4.04 51.152C4.696 51.504 5.368 51.68 6.056 51.68ZM16.3344 53H14.5344V41.408H16.3344V43.28C17.4064 41.872 18.6944 41.168 20.1984 41.168V43.016C19.9744 42.968 19.7344 42.944 19.4784 42.944C18.9344 42.944 18.3424 43.136 17.7024 43.52C17.0624 43.904 16.6064 44.328 16.3344 44.792V53ZM31.6723 51.536C30.6323 52.704 29.2483 53.288 27.5203 53.288C25.7923 53.288 24.4003 52.704 23.3443 51.536C22.3043 50.368 21.7843 48.92 21.7843 47.192C21.7843 45.464 22.3043 44.024 23.3443 42.872C24.4003 41.704 25.7923 41.12 27.5203 41.12C29.2483 41.12 30.6323 41.704 31.6723 42.872C32.7283 44.024 33.2563 45.464 33.2563 47.192C33.2563 48.92 32.7283 50.368 31.6723 51.536ZM24.6883 50.384C25.3923 51.248 26.3363 51.68 27.5203 51.68C28.7043 51.68 29.6403 51.248 30.3283 50.384C31.0163 49.504 31.3603 48.44 31.3603 47.192C31.3603 45.944 31.0163 44.888 30.3283 44.024C29.6403 43.16 28.7043 42.728 27.5203 42.728C26.3363 42.728 25.3923 43.168 24.6883 44.048C24.0003 44.912 23.6562 45.96 23.6562 47.192C23.6562 48.44 24.0003 49.504 24.6883 50.384ZM41.2546 53H39.2866L34.4626 41.408H36.4066L40.2706 50.912L44.1106 41.408H46.0786L41.2546 53ZM48.8443 39.752C48.5243 39.752 48.2443 39.64 48.0043 39.416C47.7643 39.176 47.6443 38.888 47.6443 38.552C47.6443 38.216 47.7643 37.928 48.0043 37.688C48.2443 37.448 48.5243 37.328 48.8443 37.328C49.1803 37.328 49.4683 37.448 49.7083 37.688C49.9483 37.928 50.0683 38.216 50.0683 38.552C50.0683 38.888 49.9483 39.176 49.7083 39.416C49.4683 39.64 49.1803 39.752 48.8443 39.752ZM49.7563 53H47.9563V41.408H49.7563V53ZM63.5469 53H61.7469V51.272C60.7549 52.616 59.4509 53.288 57.8349 53.288C56.2989 53.288 55.0509 52.744 54.0909 51.656C53.1469 50.552 52.6749 49.072 52.6749 47.216C52.6749 45.376 53.1469 43.904 54.0909 42.8C55.0509 41.68 56.2989 41.12 57.8349 41.12C59.4349 41.12 60.7389 41.8 61.7469 43.16V36.992H63.5469V53ZM58.2669 51.68C58.9709 51.68 59.6429 51.504 60.2829 51.152C60.9229 50.8 61.4109 50.368 61.7469 49.856V44.6C61.4109 44.072 60.9149 43.632 60.2589 43.28C59.6189 42.912 58.9549 42.728 58.2669 42.728C57.1309 42.728 56.2269 43.152 55.5549 44C54.8829 44.832 54.5469 45.904 54.5469 47.216C54.5469 48.528 54.8829 49.6 55.5549 50.432C56.2269 51.264 57.1309 51.68 58.2669 51.68ZM68.0396 39.752C67.7196 39.752 67.4396 39.64 67.1996 39.416C66.9596 39.176 66.8396 38.888 66.8396 38.552C66.8396 38.216 66.9596 37.928 67.1996 37.688C67.4396 37.448 67.7196 37.328 68.0396 37.328C68.3756 37.328 68.6636 37.448 68.9036 37.688C69.1436 37.928 69.2636 38.216 69.2636 38.552C69.2636 38.888 69.1436 39.176 68.9036 39.416C68.6636 39.64 68.3756 39.752 68.0396 39.752ZM68.9516 53H67.1516V41.408H68.9516V53ZM82.1662 53H80.3662V45.416C80.3662 44.44 80.1422 43.752 79.6942 43.352C79.2462 42.936 78.6062 42.728 77.7742 42.728C77.1022 42.728 76.4462 42.904 75.8062 43.256C75.1822 43.608 74.6942 44.032 74.3422 44.528V53H72.5422V41.408H74.3422V43.088C74.7902 42.56 75.3902 42.104 76.1422 41.72C76.8942 41.32 77.6702 41.12 78.4702 41.12C80.9342 41.12 82.1662 42.368 82.1662 44.864V53ZM90.4169 57.704C89.3929 57.704 88.5209 57.576 87.8009 57.32C87.0809 57.08 86.3929 56.632 85.7369 55.976L86.6489 54.632C87.5289 55.688 88.7849 56.216 90.4169 56.216C91.4889 56.216 92.3769 55.928 93.0809 55.352C93.7849 54.792 94.1369 53.92 94.1369 52.736V51.08C93.7049 51.688 93.1449 52.184 92.4569 52.568C91.7689 52.952 91.0329 53.144 90.2489 53.144C88.7129 53.144 87.4649 52.608 86.5049 51.536C85.5609 50.448 85.0889 48.984 85.0889 47.144C85.0889 45.304 85.5609 43.84 86.5049 42.752C87.4649 41.664 88.7129 41.12 90.2489 41.12C91.8329 41.12 93.1289 41.8 94.1369 43.16V41.408H95.9369V52.664C95.9369 54.44 95.4169 55.72 94.3769 56.504C93.3369 57.304 92.0169 57.704 90.4169 57.704ZM90.6809 51.56C91.3689 51.56 92.0329 51.376 92.6729 51.008C93.3289 50.64 93.8169 50.192 94.1369 49.664V44.6C93.8169 44.072 93.3369 43.632 92.6969 43.28C92.0569 42.912 91.3849 42.728 90.6809 42.728C89.5289 42.728 88.6169 43.136 87.9449 43.952C87.2889 44.768 86.9609 45.832 86.9609 47.144C86.9609 48.44 87.2969 49.504 87.9689 50.336C88.6409 51.152 89.5449 51.56 90.6809 51.56ZM110.578 51.68C111.282 51.68 111.954 51.504 112.594 51.152C113.25 50.784 113.73 50.336 114.034 49.808V44.576C113.73 44.064 113.25 43.632 112.594 43.28C111.954 42.912 111.282 42.728 110.578 42.728C109.442 42.728 108.538 43.144 107.866 43.976C107.21 44.808 106.882 45.88 106.882 47.192C106.882 48.504 107.21 49.584 107.866 50.432C108.538 51.264 109.442 51.68 110.578 51.68ZM110.146 53.288C108.61 53.288 107.362 52.736 106.402 51.632C105.458 50.528 104.986 49.048 104.986 47.192C104.986 45.336 105.458 43.864 106.402 42.776C107.362 41.672 108.61 41.12 110.146 41.12C110.946 41.12 111.69 41.304 112.378 41.672C113.066 42.04 113.618 42.528 114.034 43.136V41.408H115.834V57.416H114.034V51.248C113.058 52.608 111.762 53.288 110.146 53.288ZM129.088 53H127.288V51.368C126.808 51.912 126.2 52.368 125.464 52.736C124.744 53.104 123.976 53.288 123.16 53.288C120.696 53.288 119.464 52.056 119.464 49.592V41.408H121.264V49.04C121.264 50 121.48 50.68 121.912 51.08C122.36 51.48 123.008 51.68 123.856 51.68C124.528 51.68 125.176 51.512 125.8 51.176C126.44 50.84 126.936 50.424 127.288 49.928V41.408H129.088V53ZM133.571 39.752C133.251 39.752 132.971 39.64 132.731 39.416C132.491 39.176 132.371 38.888 132.371 38.552C132.371 38.216 132.491 37.928 132.731 37.688C132.971 37.448 133.251 37.328 133.571 37.328C133.907 37.328 134.195 37.448 134.435 37.688C134.675 37.928 134.795 38.216 134.795 38.552C134.795 38.888 134.675 39.176 134.435 39.416C134.195 39.64 133.907 39.752 133.571 39.752ZM134.483 53H132.683V41.408H134.483V53ZM143.185 53.288C141.473 53.288 140.081 52.712 139.009 51.56C137.937 50.392 137.401 48.936 137.401 47.192C137.401 45.448 137.937 44 139.009 42.848C140.081 41.696 141.473 41.12 143.185 41.12C144.977 41.12 146.393 41.792 147.433 43.136L146.233 44.24C145.497 43.232 144.513 42.728 143.281 42.728C142.065 42.728 141.089 43.144 140.353 43.976C139.633 44.808 139.273 45.88 139.273 47.192C139.273 48.504 139.633 49.584 140.353 50.432C141.089 51.264 142.065 51.68 143.281 51.68C144.497 51.68 145.481 51.176 146.233 50.168L147.433 51.272C146.393 52.616 144.977 53.288 143.185 53.288ZM160.156 53H157.852L153.676 47.792L151.756 49.688V53H149.956V36.992H151.756V47.576L157.852 41.408H160.132L154.996 46.664L160.156 53ZM177.52 53H175.72V51.68C174.744 52.752 173.464 53.288 171.88 53.288C170.808 53.288 169.864 52.944 169.048 52.256C168.232 51.568 167.824 50.632 167.824 49.448C167.824 48.232 168.224 47.296 169.024 46.64C169.84 45.968 170.792 45.632 171.88 45.632C173.528 45.632 174.808 46.16 175.72 47.216V45.128C175.72 44.36 175.448 43.76 174.904 43.328C174.36 42.896 173.656 42.68 172.792 42.68C171.432 42.68 170.248 43.216 169.24 44.288L168.4 43.04C169.632 41.76 171.176 41.12 173.032 41.12C174.36 41.12 175.44 41.44 176.272 42.08C177.104 42.72 177.52 43.704 177.52 45.032V53ZM172.528 51.992C173.968 51.992 175.032 51.512 175.72 50.552V48.368C175.032 47.408 173.968 46.928 172.528 46.928C171.696 46.928 171.008 47.168 170.464 47.648C169.936 48.112 169.672 48.72 169.672 49.472C169.672 50.208 169.936 50.816 170.464 51.296C171.008 51.76 171.696 51.992 172.528 51.992ZM186.24 53.288C184.528 53.288 183.136 52.712 182.064 51.56C180.992 50.392 180.456 48.936 180.456 47.192C180.456 45.448 180.992 44 182.064 42.848C183.136 41.696 184.528 41.12 186.24 41.12C188.032 41.12 189.448 41.792 190.488 43.136L189.288 44.24C188.552 43.232 187.568 42.728 186.336 42.728C185.12 42.728 184.144 43.144 183.408 43.976C182.688 44.808 182.328 45.88 182.328 47.192C182.328 48.504 182.688 49.584 183.408 50.432C184.144 51.264 185.12 51.68 186.336 51.68C187.552 51.68 188.536 51.176 189.288 50.168L190.488 51.272C189.448 52.616 188.032 53.288 186.24 53.288ZM198.123 53.288C196.411 53.288 195.019 52.712 193.947 51.56C192.875 50.392 192.339 48.936 192.339 47.192C192.339 45.448 192.875 44 193.947 42.848C195.019 41.696 196.411 41.12 198.123 41.12C199.915 41.12 201.331 41.792 202.371 43.136L201.171 44.24C200.435 43.232 199.451 42.728 198.219 42.728C197.003 42.728 196.027 43.144 195.291 43.976C194.571 44.808 194.211 45.88 194.211 47.192C194.211 48.504 194.571 49.584 195.291 50.432C196.027 51.264 197.003 51.68 198.219 51.68C199.435 51.68 200.419 51.176 201.171 50.168L202.371 51.272C201.331 52.616 199.915 53.288 198.123 53.288ZM210.126 53.288C208.398 53.288 206.982 52.728 205.878 51.608C204.774 50.472 204.222 49 204.222 47.192C204.222 45.496 204.766 44.064 205.854 42.896C206.942 41.712 208.302 41.12 209.934 41.12C211.646 41.12 212.998 41.712 213.99 42.896C214.998 44.064 215.502 45.544 215.502 47.336V47.792H206.118C206.198 48.928 206.614 49.88 207.366 50.648C208.118 51.416 209.094 51.8 210.294 51.8C211.734 51.8 212.926 51.312 213.87 50.336L214.734 51.512C213.55 52.696 212.014 53.288 210.126 53.288ZM213.726 46.472C213.71 45.48 213.374 44.592 212.718 43.808C212.062 43.008 211.126 42.608 209.91 42.608C208.758 42.608 207.846 43 207.174 43.784C206.518 44.568 206.166 45.464 206.118 46.472H213.726ZM222.089 53.288C220.121 53.288 218.561 52.68 217.409 51.464L218.345 50.168C218.745 50.632 219.289 51.024 219.977 51.344C220.681 51.664 221.409 51.824 222.161 51.824C223.025 51.824 223.697 51.64 224.177 51.272C224.657 50.904 224.897 50.424 224.897 49.832C224.897 49.32 224.649 48.92 224.153 48.632C223.657 48.328 223.057 48.104 222.353 47.96C221.665 47.8 220.969 47.624 220.265 47.432C219.561 47.224 218.961 46.88 218.465 46.4C217.969 45.904 217.721 45.256 217.721 44.456C217.721 43.512 218.105 42.72 218.873 42.08C219.657 41.44 220.713 41.12 222.041 41.12C223.785 41.12 225.217 41.68 226.337 42.8L225.497 44.048C224.681 43.072 223.529 42.584 222.041 42.584C221.257 42.584 220.633 42.76 220.169 43.112C219.705 43.448 219.473 43.88 219.473 44.408C219.473 44.872 219.721 45.24 220.217 45.512C220.713 45.768 221.305 45.976 221.993 46.136C222.697 46.28 223.401 46.456 224.105 46.664C224.809 46.872 225.409 47.24 225.905 47.768C226.401 48.28 226.649 48.952 226.649 49.784C226.649 50.808 226.249 51.648 225.449 52.304C224.649 52.96 223.529 53.288 222.089 53.288ZM233.245 53.288C231.277 53.288 229.717 52.68 228.565 51.464L229.501 50.168C229.901 50.632 230.445 51.024 231.133 51.344C231.837 51.664 232.565 51.824 233.317 51.824C234.181 51.824 234.853 51.64 235.333 51.272C235.813 50.904 236.053 50.424 236.053 49.832C236.053 49.32 235.805 48.92 235.309 48.632C234.813 48.328 234.213 48.104 233.509 47.96C232.821 47.8 232.125 47.624 231.421 47.432C230.717 47.224 230.117 46.88 229.621 46.4C229.125 45.904 228.877 45.256 228.877 44.456C228.877 43.512 229.261 42.72 230.029 42.08C230.813 41.44 231.869 41.12 233.197 41.12C234.941 41.12 236.373 41.68 237.493 42.8L236.653 44.048C235.837 43.072 234.685 42.584 233.197 42.584C232.413 42.584 231.789 42.76 231.325 43.112C230.861 43.448 230.629 43.88 230.629 44.408C230.629 44.872 230.877 45.24 231.373 45.512C231.869 45.768 232.461 45.976 233.149 46.136C233.853 46.28 234.557 46.456 235.261 46.664C235.965 46.872 236.565 47.24 237.061 47.768C237.557 48.28 237.805 48.952 237.805 49.784C237.805 50.808 237.405 51.648 236.605 52.304C235.805 52.96 234.685 53.288 233.245 53.288ZM249.845 53.288C248.997 53.288 248.357 53.056 247.925 52.592C247.493 52.128 247.277 51.456 247.277 50.576V42.992H245.357V41.408H247.277V38.24H249.077V41.408H251.429V42.992H249.077V50.192C249.077 50.64 249.173 51 249.365 51.272C249.573 51.544 249.869 51.68 250.253 51.68C250.781 51.68 251.189 51.52 251.477 51.2L252.005 52.544C251.477 53.04 250.757 53.288 249.845 53.288ZM263.188 51.536C262.148 52.704 260.764 53.288 259.036 53.288C257.308 53.288 255.916 52.704 254.86 51.536C253.82 50.368 253.3 48.92 253.3 47.192C253.3 45.464 253.82 44.024 254.86 42.872C255.916 41.704 257.308 41.12 259.036 41.12C260.764 41.12 262.148 41.704 263.188 42.872C264.244 44.024 264.772 45.464 264.772 47.192C264.772 48.92 264.244 50.368 263.188 51.536ZM256.204 50.384C256.908 51.248 257.852 51.68 259.036 51.68C260.22 51.68 261.156 51.248 261.844 50.384C262.532 49.504 262.876 48.44 262.876 47.192C262.876 45.944 262.532 44.888 261.844 44.024C261.156 43.16 260.22 42.728 259.036 42.728C257.852 42.728 256.908 43.168 256.204 44.048C255.516 44.912 255.172 45.96 255.172 47.192C255.172 48.44 255.516 49.504 256.204 50.384ZM275.694 53H273.894V36.992H275.694V53ZM288.5 51.536C287.46 52.704 286.076 53.288 284.348 53.288C282.62 53.288 281.228 52.704 280.172 51.536C279.132 50.368 278.612 48.92 278.612 47.192C278.612 45.464 279.132 44.024 280.172 42.872C281.228 41.704 282.62 41.12 284.348 41.12C286.076 41.12 287.46 41.704 288.5 42.872C289.556 44.024 290.084 45.464 290.084 47.192C290.084 48.92 289.556 50.368 288.5 51.536ZM281.516 50.384C282.22 51.248 283.164 51.68 284.348 51.68C285.532 51.68 286.468 51.248 287.156 50.384C287.844 49.504 288.188 48.44 288.188 47.192C288.188 45.944 287.844 44.888 287.156 44.024C286.468 43.16 285.532 42.728 284.348 42.728C283.164 42.728 282.22 43.168 281.516 44.048C280.828 44.912 280.484 45.96 280.484 47.192C280.484 48.44 280.828 49.504 281.516 50.384ZM302.067 53H300.267V51.68C299.291 52.752 298.011 53.288 296.427 53.288C295.355 53.288 294.411 52.944 293.595 52.256C292.779 51.568 292.371 50.632 292.371 49.448C292.371 48.232 292.771 47.296 293.571 46.64C294.387 45.968 295.339 45.632 296.427 45.632C298.075 45.632 299.355 46.16 300.267 47.216V45.128C300.267 44.36 299.995 43.76 299.451 43.328C298.907 42.896 298.203 42.68 297.339 42.68C295.979 42.68 294.795 43.216 293.787 44.288L292.947 43.04C294.179 41.76 295.723 41.12 297.579 41.12C298.907 41.12 299.987 41.44 300.819 42.08C301.651 42.72 302.067 43.704 302.067 45.032V53ZM297.075 51.992C298.515 51.992 299.579 51.512 300.267 50.552V48.368C299.579 47.408 298.515 46.928 297.075 46.928C296.243 46.928 295.555 47.168 295.011 47.648C294.483 48.112 294.219 48.72 294.219 49.472C294.219 50.208 294.483 50.816 295.011 51.296C295.555 51.76 296.243 51.992 297.075 51.992ZM315.299 53H313.499V45.416C313.499 44.44 313.275 43.752 312.827 43.352C312.379 42.936 311.739 42.728 310.907 42.728C310.235 42.728 309.579 42.904 308.939 43.256C308.315 43.608 307.827 44.032 307.475 44.528V53H305.675V41.408H307.475V43.088C307.923 42.56 308.523 42.104 309.275 41.72C310.027 41.32 310.803 41.12 311.603 41.12C314.067 41.12 315.299 42.368 315.299 44.864V53ZM322.566 53.288C320.598 53.288 319.038 52.68 317.886 51.464L318.822 50.168C319.222 50.632 319.766 51.024 320.454 51.344C321.158 51.664 321.886 51.824 322.638 51.824C323.502 51.824 324.174 51.64 324.654 51.272C325.134 50.904 325.374 50.424 325.374 49.832C325.374 49.32 325.126 48.92 324.63 48.632C324.134 48.328 323.534 48.104 322.83 47.96C322.142 47.8 321.446 47.624 320.742 47.432C320.038 47.224 319.438 46.88 318.942 46.4C318.446 45.904 318.198 45.256 318.198 44.456C318.198 43.512 318.582 42.72 319.35 42.08C320.134 41.44 321.19 41.12 322.518 41.12C324.262 41.12 325.694 41.68 326.814 42.8L325.974 44.048C325.158 43.072 324.006 42.584 322.518 42.584C321.734 42.584 321.11 42.76 320.646 43.112C320.182 43.448 319.95 43.88 319.95 44.408C319.95 44.872 320.198 45.24 320.694 45.512C321.19 45.768 321.782 45.976 322.47 46.136C323.174 46.28 323.878 46.456 324.582 46.664C325.286 46.872 325.886 47.24 326.382 47.768C326.878 48.28 327.126 48.952 327.126 49.784C327.126 50.808 326.726 51.648 325.926 52.304C325.126 52.96 324.006 53.288 322.566 53.288ZM337.126 39.752C336.806 39.752 336.526 39.64 336.286 39.416C336.046 39.176 335.926 38.888 335.926 38.552C335.926 38.216 336.046 37.928 336.286 37.688C336.526 37.448 336.806 37.328 337.126 37.328C337.462 37.328 337.75 37.448 337.99 37.688C338.23 37.928 338.35 38.216 338.35 38.552C338.35 38.888 338.23 39.176 337.99 39.416C337.75 39.64 337.462 39.752 337.126 39.752ZM338.038 53H336.238V41.408H338.038V53ZM351.252 53H349.452V45.416C349.452 44.44 349.228 43.752 348.78 43.352C348.332 42.936 347.692 42.728 346.86 42.728C346.188 42.728 345.532 42.904 344.892 43.256C344.268 43.608 343.78 44.032 343.428 44.528V53H341.628V41.408H343.428V43.088C343.876 42.56 344.476 42.104 345.228 41.72C345.98 41.32 346.756 41.12 347.556 41.12C350.02 41.12 351.252 42.368 351.252 44.864V53ZM370.25 51.536C369.21 52.704 367.826 53.288 366.098 53.288C364.37 53.288 362.978 52.704 361.922 51.536C360.882 50.368 360.362 48.92 360.362 47.192C360.362 45.464 360.882 44.024 361.922 42.872C362.978 41.704 364.37 41.12 366.098 41.12C367.826 41.12 369.21 41.704 370.25 42.872C371.306 44.024 371.834 45.464 371.834 47.192C371.834 48.92 371.306 50.368 370.25 51.536ZM363.266 50.384C363.97 51.248 364.914 51.68 366.098 51.68C367.282 51.68 368.218 51.248 368.906 50.384C369.594 49.504 369.938 48.44 369.938 47.192C369.938 45.944 369.594 44.888 368.906 44.024C368.218 43.16 367.282 42.728 366.098 42.728C364.914 42.728 363.97 43.168 363.266 44.048C362.578 44.912 362.234 45.96 362.234 47.192C362.234 48.44 362.578 49.504 363.266 50.384ZM376.569 53H374.769V41.408H376.569V43.28C377.641 41.872 378.929 41.168 380.433 41.168V43.016C380.209 42.968 379.969 42.944 379.713 42.944C379.169 42.944 378.577 43.136 377.937 43.52C377.297 43.904 376.841 44.328 376.569 44.792V53ZM392.891 53H391.091V51.272C390.099 52.616 388.795 53.288 387.179 53.288C385.643 53.288 384.395 52.744 383.435 51.656C382.491 50.552 382.019 49.072 382.019 47.216C382.019 45.376 382.491 43.904 383.435 42.8C384.395 41.68 385.643 41.12 387.179 41.12C388.779 41.12 390.083 41.8 391.091 43.16V36.992H392.891V53ZM387.611 51.68C388.315 51.68 388.987 51.504 389.627 51.152C390.267 50.8 390.755 50.368 391.091 49.856V44.6C390.755 44.072 390.259 43.632 389.603 43.28C388.963 42.912 388.299 42.728 387.611 42.728C386.475 42.728 385.571 43.152 384.899 44C384.227 44.832 383.891 45.904 383.891 47.216C383.891 48.528 384.227 49.6 384.899 50.432C385.571 51.264 386.475 51.68 387.611 51.68ZM401.727 53.288C399.999 53.288 398.583 52.728 397.479 51.608C396.375 50.472 395.823 49 395.823 47.192C395.823 45.496 396.367 44.064 397.455 42.896C398.543 41.712 399.903 41.12 401.535 41.12C403.247 41.12 404.599 41.712 405.591 42.896C406.599 44.064 407.103 45.544 407.103 47.336V47.792H397.719C397.799 48.928 398.215 49.88 398.967 50.648C399.719 51.416 400.695 51.8 401.895 51.8C403.335 51.8 404.527 51.312 405.471 50.336L406.335 51.512C405.151 52.696 403.615 53.288 401.727 53.288ZM405.327 46.472C405.311 45.48 404.975 44.592 404.319 43.808C403.663 43.008 402.727 42.608 401.511 42.608C400.359 42.608 399.447 43 398.775 43.784C398.119 44.568 397.767 45.464 397.719 46.472H405.327ZM411.819 53H410.019V41.408H411.819V43.28C412.891 41.872 414.179 41.168 415.683 41.168V43.016C415.459 42.968 415.219 42.944 414.963 42.944C414.419 42.944 413.827 43.136 413.187 43.52C412.547 43.904 412.091 44.328 411.819 44.792V53ZM427.056 53.288C426.208 53.288 425.568 53.056 425.136 52.592C424.704 52.128 424.488 51.456 424.488 50.576V42.992H422.568V41.408H424.488V38.24H426.288V41.408H428.64V42.992H426.288V50.192C426.288 50.64 426.384 51 426.576 51.272C426.784 51.544 427.08 51.68 427.464 51.68C427.992 51.68 428.4 51.52 428.688 51.2L429.216 52.544C428.688 53.04 427.968 53.288 427.056 53.288ZM440.399 51.536C439.359 52.704 437.975 53.288 436.247 53.288C434.519 53.288 433.127 52.704 432.071 51.536C431.031 50.368 430.511 48.92 430.511 47.192C430.511 45.464 431.031 44.024 432.071 42.872C433.127 41.704 434.519 41.12 436.247 41.12C437.975 41.12 439.359 41.704 440.399 42.872C441.455 44.024 441.983 45.464 441.983 47.192C441.983 48.92 441.455 50.368 440.399 51.536ZM433.415 50.384C434.119 51.248 435.063 51.68 436.247 51.68C437.431 51.68 438.367 51.248 439.055 50.384C439.743 49.504 440.087 48.44 440.087 47.192C440.087 45.944 439.743 44.888 439.055 44.024C438.367 43.16 437.431 42.728 436.247 42.728C435.063 42.728 434.119 43.168 433.415 44.048C432.727 44.912 432.383 45.96 432.383 47.192C432.383 48.44 432.727 49.504 433.415 50.384ZM456.817 53.288C455.185 53.288 453.881 52.608 452.905 51.248V57.416H451.105V41.408H452.905V43.136C453.337 42.528 453.897 42.04 454.585 41.672C455.273 41.304 456.017 41.12 456.817 41.12C458.353 41.12 459.593 41.672 460.537 42.776C461.497 43.864 461.977 45.336 461.977 47.192C461.977 49.048 461.497 50.528 460.537 51.632C459.593 52.736 458.353 53.288 456.817 53.288ZM456.361 51.68C457.497 51.68 458.401 51.264 459.073 50.432C459.745 49.584 460.081 48.504 460.081 47.192C460.081 45.88 459.745 44.808 459.073 43.976C458.401 43.144 457.497 42.728 456.361 42.728C455.673 42.728 455.001 42.912 454.345 43.28C453.705 43.632 453.225 44.064 452.905 44.576V49.808C453.225 50.336 453.705 50.784 454.345 51.152C455.001 51.504 455.673 51.68 456.361 51.68ZM466.639 53H464.839V41.408H466.639V43.28C467.711 41.872 468.999 41.168 470.503 41.168V43.016C470.279 42.968 470.039 42.944 469.783 42.944C469.239 42.944 468.647 43.136 468.007 43.52C467.367 43.904 466.911 44.328 466.639 44.792V53ZM481.977 51.536C480.937 52.704 479.553 53.288 477.825 53.288C476.097 53.288 474.705 52.704 473.649 51.536C472.609 50.368 472.089 48.92 472.089 47.192C472.089 45.464 472.609 44.024 473.649 42.872C474.705 41.704 476.097 41.12 477.825 41.12C479.553 41.12 480.937 41.704 481.977 42.872C483.033 44.024 483.561 45.464 483.561 47.192C483.561 48.92 483.033 50.368 481.977 51.536ZM474.993 50.384C475.697 51.248 476.641 51.68 477.825 51.68C479.009 51.68 479.945 51.248 480.633 50.384C481.321 49.504 481.665 48.44 481.665 47.192C481.665 45.944 481.321 44.888 480.633 44.024C479.945 43.16 479.009 42.728 477.825 42.728C476.641 42.728 475.697 43.168 474.993 44.048C474.305 44.912 473.961 45.96 473.961 47.192C473.961 48.44 474.305 49.504 474.993 50.384ZM491.559 53H489.591L484.767 41.408H486.711L490.575 50.912L494.415 41.408H496.383L491.559 53ZM499.149 39.752C498.829 39.752 498.549 39.64 498.309 39.416C498.069 39.176 497.949 38.888 497.949 38.552C497.949 38.216 498.069 37.928 498.309 37.688C498.549 37.448 498.829 37.328 499.149 37.328C499.485 37.328 499.773 37.448 500.013 37.688C500.253 37.928 500.373 38.216 500.373 38.552C500.373 38.888 500.253 39.176 500.013 39.416C499.773 39.64 499.485 39.752 499.149 39.752ZM500.061 53H498.261V41.408H500.061V53ZM513.852 53H512.052V51.272C511.06 52.616 509.756 53.288 508.14 53.288C506.604 53.288 505.356 52.744 504.396 51.656C503.452 50.552 502.98 49.072 502.98 47.216C502.98 45.376 503.452 43.904 504.396 42.8C505.356 41.68 506.604 41.12 508.14 41.12C509.74 41.12 511.044 41.8 512.052 43.16V36.992H513.852V53ZM508.572 51.68C509.276 51.68 509.948 51.504 510.588 51.152C511.228 50.8 511.716 50.368 512.052 49.856V44.6C511.716 44.072 511.22 43.632 510.564 43.28C509.924 42.912 509.26 42.728 508.572 42.728C507.436 42.728 506.532 43.152 505.86 44C505.188 44.832 504.852 45.904 504.852 47.216C504.852 48.528 505.188 49.6 505.86 50.432C506.532 51.264 507.436 51.68 508.572 51.68ZM522.688 53.288C520.96 53.288 519.544 52.728 518.44 51.608C517.336 50.472 516.784 49 516.784 47.192C516.784 45.496 517.328 44.064 518.416 42.896C519.504 41.712 520.864 41.12 522.496 41.12C524.208 41.12 525.56 41.712 526.552 42.896C527.56 44.064 528.064 45.544 528.064 47.336V47.792H518.68C518.76 48.928 519.176 49.88 519.928 50.648C520.68 51.416 521.656 51.8 522.856 51.8C524.296 51.8 525.488 51.312 526.432 50.336L527.296 51.512C526.112 52.696 524.576 53.288 522.688 53.288ZM526.288 46.472C526.272 45.48 525.936 44.592 525.28 43.808C524.624 43.008 523.688 42.608 522.472 42.608C521.32 42.608 520.408 43 519.736 43.784C519.08 44.568 518.728 45.464 518.68 46.472H526.288ZM5.912 89.288C4.2 89.288 2.808 88.712 1.736 87.56C0.664 86.392 0.128 84.936 0.128 83.192C0.128 81.448 0.664 80 1.736 78.848C2.808 77.696 4.2 77.12 5.912 77.12C7.704 77.12 9.12 77.792 10.16 79.136L8.96 80.24C8.224 79.232 7.24 78.728 6.008 78.728C4.792 78.728 3.816 79.144 3.08 79.976C2.36 80.808 2 81.88 2 83.192C2 84.504 2.36 85.584 3.08 86.432C3.816 87.264 4.792 87.68 6.008 87.68C7.224 87.68 8.208 87.176 8.96 86.168L10.16 87.272C9.12 88.616 7.704 89.288 5.912 89.288ZM21.8988 87.536C20.8588 88.704 19.4748 89.288 17.7468 89.288C16.0188 89.288 14.6268 88.704 13.5708 87.536C12.5308 86.368 12.0108 84.92 12.0108 83.192C12.0108 81.464 12.5308 80.024 13.5708 78.872C14.6268 77.704 16.0188 77.12 17.7468 77.12C19.4748 77.12 20.8588 77.704 21.8988 78.872C22.9548 80.024 23.4828 81.464 23.4828 83.192C23.4828 84.92 22.9548 86.368 21.8988 87.536ZM14.9148 86.384C15.6188 87.248 16.5628 87.68 17.7468 87.68C18.9308 87.68 19.8668 87.248 20.5548 86.384C21.2428 85.504 21.5868 84.44 21.5868 83.192C21.5868 81.944 21.2428 80.888 20.5548 80.024C19.8668 79.16 18.9308 78.728 17.7468 78.728C16.5628 78.728 15.6188 79.168 14.9148 80.048C14.2268 80.912 13.8828 81.96 13.8828 83.192C13.8828 84.44 14.2268 85.504 14.9148 86.384ZM36.0412 89H34.2412V81.416C34.2412 80.44 34.0172 79.752 33.5692 79.352C33.1212 78.936 32.4812 78.728 31.6492 78.728C30.9772 78.728 30.3212 78.904 29.6812 79.256C29.0572 79.608 28.5692 80.032 28.2172 80.528V89H26.4172V77.408H28.2172V79.088C28.6652 78.56 29.2652 78.104 30.0172 77.72C30.7692 77.32 31.5452 77.12 32.3452 77.12C34.8092 77.12 36.0412 78.368 36.0412 80.864V89ZM44.6999 89H42.7319L37.9079 77.408H39.8519L43.7159 86.912L47.5559 77.408H49.5239L44.6999 89ZM56.6336 89.288C54.9056 89.288 53.4896 88.728 52.3856 87.608C51.2816 86.472 50.7296 85 50.7296 83.192C50.7296 81.496 51.2736 80.064 52.3616 78.896C53.4496 77.712 54.8096 77.12 56.4416 77.12C58.1536 77.12 59.5056 77.712 60.4976 78.896C61.5056 80.064 62.0096 81.544 62.0096 83.336V83.792H52.6256C52.7056 84.928 53.1216 85.88 53.8736 86.648C54.6256 87.416 55.6016 87.8 56.8016 87.8C58.2416 87.8 59.4336 87.312 60.3776 86.336L61.2416 87.512C60.0576 88.696 58.5216 89.288 56.6336 89.288ZM60.2336 82.472C60.2176 81.48 59.8816 80.592 59.2256 79.808C58.5696 79.008 57.6336 78.608 56.4176 78.608C55.2656 78.608 54.3536 79 53.6816 79.784C53.0256 80.568 52.6736 81.464 52.6256 82.472H60.2336ZM74.549 89H72.749V81.416C72.749 80.44 72.525 79.752 72.077 79.352C71.629 78.936 70.989 78.728 70.157 78.728C69.485 78.728 68.829 78.904 68.189 79.256C67.565 79.608 67.077 80.032 66.725 80.528V89H64.925V77.408H66.725V79.088C67.173 78.56 67.773 78.104 68.525 77.72C69.277 77.32 70.053 77.12 70.853 77.12C73.317 77.12 74.549 78.368 74.549 80.864V89ZM79.0318 75.752C78.7118 75.752 78.4318 75.64 78.1918 75.416C77.9518 75.176 77.8318 74.888 77.8318 74.552C77.8318 74.216 77.9518 73.928 78.1918 73.688C78.4318 73.448 78.7118 73.328 79.0318 73.328C79.3678 73.328 79.6558 73.448 79.8958 73.688C80.1358 73.928 80.2558 74.216 80.2558 74.552C80.2558 74.888 80.1358 75.176 79.8958 75.416C79.6558 75.64 79.3678 75.752 79.0318 75.752ZM79.9438 89H78.1438V77.408H79.9438V89ZM88.7664 89.288C87.0384 89.288 85.6224 88.728 84.5184 87.608C83.4144 86.472 82.8624 85 82.8624 83.192C82.8624 81.496 83.4064 80.064 84.4944 78.896C85.5824 77.712 86.9424 77.12 88.5744 77.12C90.2864 77.12 91.6384 77.712 92.6304 78.896C93.6384 80.064 94.1424 81.544 94.1424 83.336V83.792H84.7584C84.8384 84.928 85.2544 85.88 86.0064 86.648C86.7584 87.416 87.7344 87.8 88.9344 87.8C90.3744 87.8 91.5664 87.312 92.5104 86.336L93.3744 87.512C92.1904 88.696 90.6544 89.288 88.7664 89.288ZM92.3664 82.472C92.3504 81.48 92.0144 80.592 91.3584 79.808C90.7024 79.008 89.7664 78.608 88.5504 78.608C87.3984 78.608 86.4864 79 85.8144 79.784C85.1584 80.568 84.8064 81.464 84.7584 82.472H92.3664ZM106.682 89H104.882V81.416C104.882 80.44 104.658 79.752 104.21 79.352C103.762 78.936 103.122 78.728 102.29 78.728C101.618 78.728 100.962 78.904 100.322 79.256C99.6978 79.608 99.2098 80.032 98.8578 80.528V89H97.0578V77.408H98.8578V79.088C99.3058 78.56 99.9058 78.104 100.658 77.72C101.41 77.32 102.186 77.12 102.986 77.12C105.45 77.12 106.682 78.368 106.682 80.864V89ZM115.389 89.288C113.677 89.288 112.285 88.712 111.213 87.56C110.141 86.392 109.605 84.936 109.605 83.192C109.605 81.448 110.141 80 111.213 78.848C112.285 77.696 113.677 77.12 115.389 77.12C117.181 77.12 118.597 77.792 119.637 79.136L118.437 80.24C117.701 79.232 116.717 78.728 115.485 78.728C114.269 78.728 113.293 79.144 112.557 79.976C111.837 80.808 111.477 81.88 111.477 83.192C111.477 84.504 111.837 85.584 112.557 86.432C113.293 87.264 114.269 87.68 115.485 87.68C116.701 87.68 117.685 87.176 118.437 86.168L119.637 87.272C118.597 88.616 117.181 89.288 115.389 89.288ZM127.391 89.288C125.663 89.288 124.247 88.728 123.143 87.608C122.039 86.472 121.487 85 121.487 83.192C121.487 81.496 122.031 80.064 123.119 78.896C124.207 77.712 125.567 77.12 127.199 77.12C128.911 77.12 130.263 77.712 131.255 78.896C132.263 80.064 132.767 81.544 132.767 83.336V83.792H123.383C123.463 84.928 123.879 85.88 124.631 86.648C125.383 87.416 126.359 87.8 127.559 87.8C128.999 87.8 130.191 87.312 131.135 86.336L131.999 87.512C130.815 88.696 129.279 89.288 127.391 89.288ZM130.991 82.472C130.975 81.48 130.639 80.592 129.983 79.808C129.327 79.008 128.391 78.608 127.175 78.608C126.023 78.608 125.111 79 124.439 79.784C123.783 80.568 123.431 81.464 123.383 82.472H130.991ZM144.174 89H142.374V78.992H140.454V77.408H142.374V76.52C142.374 75.336 142.67 74.416 143.262 73.76C143.87 73.088 144.694 72.752 145.734 72.752C146.726 72.752 147.542 73.048 148.182 73.64L147.438 74.816C147.006 74.432 146.526 74.24 145.998 74.24C145.406 74.24 144.95 74.44 144.63 74.84C144.326 75.224 144.174 75.784 144.174 76.52V77.408H146.526V78.992H144.174V89ZM157.883 87.536C156.843 88.704 155.459 89.288 153.731 89.288C152.003 89.288 150.611 88.704 149.555 87.536C148.515 86.368 147.995 84.92 147.995 83.192C147.995 81.464 148.515 80.024 149.555 78.872C150.611 77.704 152.003 77.12 153.731 77.12C155.459 77.12 156.843 77.704 157.883 78.872C158.939 80.024 159.467 81.464 159.467 83.192C159.467 84.92 158.939 86.368 157.883 87.536ZM150.899 86.384C151.603 87.248 152.547 87.68 153.731 87.68C154.915 87.68 155.851 87.248 156.539 86.384C157.227 85.504 157.571 84.44 157.571 83.192C157.571 81.944 157.227 80.888 156.539 80.024C155.851 79.16 154.915 78.728 153.731 78.728C152.547 78.728 151.603 79.168 150.899 80.048C150.211 80.912 149.867 81.96 149.867 83.192C149.867 84.44 150.211 85.504 150.899 86.384ZM164.202 89H162.402V77.408H164.202V79.28C165.274 77.872 166.562 77.168 168.066 77.168V79.016C167.842 78.968 167.602 78.944 167.346 78.944C166.802 78.944 166.21 79.136 165.57 79.52C164.93 79.904 164.474 80.328 164.202 80.792V89ZM177.399 75.752C177.079 75.752 176.799 75.64 176.559 75.416C176.319 75.176 176.199 74.888 176.199 74.552C176.199 74.216 176.319 73.928 176.559 73.688C176.799 73.448 177.079 73.328 177.399 73.328C177.735 73.328 178.023 73.448 178.263 73.688C178.503 73.928 178.623 74.216 178.623 74.552C178.623 74.888 178.503 75.176 178.263 75.416C178.023 75.64 177.735 75.752 177.399 75.752ZM178.311 89H176.511V77.408H178.311V89ZM184.83 89.288C183.982 89.288 183.342 89.056 182.91 88.592C182.478 88.128 182.262 87.456 182.262 86.576V78.992H180.342V77.408H182.262V74.24H184.062V77.408H186.414V78.992H184.062V86.192C184.062 86.64 184.158 87 184.35 87.272C184.558 87.544 184.854 87.68 185.238 87.68C185.766 87.68 186.174 87.52 186.462 87.2L186.99 88.544C186.462 89.04 185.742 89.288 184.83 89.288ZM192.628 89.288C190.66 89.288 189.1 88.68 187.948 87.464L188.884 86.168C189.284 86.632 189.828 87.024 190.516 87.344C191.22 87.664 191.948 87.824 192.7 87.824C193.564 87.824 194.236 87.64 194.716 87.272C195.196 86.904 195.436 86.424 195.436 85.832C195.436 85.32 195.188 84.92 194.692 84.632C194.196 84.328 193.596 84.104 192.892 83.96C192.204 83.8 191.508 83.624 190.804 83.432C190.1 83.224 189.5 82.88 189.004 82.4C188.508 81.904 188.26 81.256 188.26 80.456C188.26 79.512 188.644 78.72 189.412 78.08C190.196 77.44 191.252 77.12 192.58 77.12C194.324 77.12 195.756 77.68 196.876 78.8L196.036 80.048C195.22 79.072 194.068 78.584 192.58 78.584C191.796 78.584 191.172 78.76 190.708 79.112C190.244 79.448 190.012 79.88 190.012 80.408C190.012 80.872 190.26 81.24 190.756 81.512C191.252 81.768 191.844 81.976 192.532 82.136C193.236 82.28 193.94 82.456 194.644 82.664C195.348 82.872 195.948 83.24 196.444 83.768C196.94 84.28 197.188 84.952 197.188 85.784C197.188 86.808 196.788 87.648 195.988 88.304C195.188 88.96 194.068 89.288 192.628 89.288ZM211.412 89.288C209.7 89.288 208.308 88.712 207.236 87.56C206.164 86.392 205.628 84.936 205.628 83.192C205.628 81.448 206.164 80 207.236 78.848C208.308 77.696 209.7 77.12 211.412 77.12C213.204 77.12 214.62 77.792 215.66 79.136L214.46 80.24C213.724 79.232 212.74 78.728 211.508 78.728C210.292 78.728 209.316 79.144 208.58 79.976C207.86 80.808 207.5 81.88 207.5 83.192C207.5 84.504 207.86 85.584 208.58 86.432C209.316 87.264 210.292 87.68 211.508 87.68C212.724 87.68 213.708 87.176 214.46 86.168L215.66 87.272C214.62 88.616 213.204 89.288 211.412 89.288ZM227.807 89H226.007V87.368C225.527 87.912 224.919 88.368 224.183 88.736C223.463 89.104 222.695 89.288 221.879 89.288C219.415 89.288 218.183 88.056 218.183 85.592V77.408H219.983V85.04C219.983 86 220.199 86.68 220.631 87.08C221.079 87.48 221.727 87.68 222.575 87.68C223.247 87.68 223.895 87.512 224.519 87.176C225.159 86.84 225.655 86.424 226.007 85.928V77.408H227.807V89ZM235.074 89.288C233.106 89.288 231.546 88.68 230.394 87.464L231.33 86.168C231.73 86.632 232.274 87.024 232.962 87.344C233.666 87.664 234.394 87.824 235.146 87.824C236.01 87.824 236.682 87.64 237.162 87.272C237.642 86.904 237.882 86.424 237.882 85.832C237.882 85.32 237.634 84.92 237.138 84.632C236.642 84.328 236.042 84.104 235.338 83.96C234.65 83.8 233.954 83.624 233.25 83.432C232.546 83.224 231.946 82.88 231.45 82.4C230.954 81.904 230.706 81.256 230.706 80.456C230.706 79.512 231.09 78.72 231.858 78.08C232.642 77.44 233.698 77.12 235.026 77.12C236.77 77.12 238.202 77.68 239.322 78.8L238.482 80.048C237.666 79.072 236.514 78.584 235.026 78.584C234.242 78.584 233.618 78.76 233.154 79.112C232.69 79.448 232.458 79.88 232.458 80.408C232.458 80.872 232.706 81.24 233.202 81.512C233.698 81.768 234.29 81.976 234.978 82.136C235.682 82.28 236.386 82.456 237.09 82.664C237.794 82.872 238.394 83.24 238.89 83.768C239.386 84.28 239.634 84.952 239.634 85.784C239.634 86.808 239.234 87.648 238.434 88.304C237.634 88.96 236.514 89.288 235.074 89.288ZM245.486 89.288C244.638 89.288 243.998 89.056 243.566 88.592C243.134 88.128 242.918 87.456 242.918 86.576V78.992H240.998V77.408H242.918V74.24H244.718V77.408H247.07V78.992H244.718V86.192C244.718 86.64 244.814 87 245.006 87.272C245.214 87.544 245.51 87.68 245.894 87.68C246.422 87.68 246.83 87.52 247.118 87.2L247.646 88.544C247.118 89.04 246.398 89.288 245.486 89.288ZM258.829 87.536C257.789 88.704 256.405 89.288 254.677 89.288C252.949 89.288 251.557 88.704 250.501 87.536C249.461 86.368 248.941 84.92 248.941 83.192C248.941 81.464 249.461 80.024 250.501 78.872C251.557 77.704 252.949 77.12 254.677 77.12C256.405 77.12 257.789 77.704 258.829 78.872C259.885 80.024 260.413 81.464 260.413 83.192C260.413 84.92 259.885 86.368 258.829 87.536ZM251.845 86.384C252.549 87.248 253.493 87.68 254.677 87.68C255.861 87.68 256.797 87.248 257.485 86.384C258.173 85.504 258.517 84.44 258.517 83.192C258.517 81.944 258.173 80.888 257.485 80.024C256.797 79.16 255.861 78.728 254.677 78.728C253.493 78.728 252.549 79.168 251.845 80.048C251.157 80.912 250.812 81.96 250.812 83.192C250.812 84.44 251.157 85.504 251.845 86.384ZM279.139 89H277.339V81.128C277.339 79.528 276.627 78.728 275.203 78.728C274.627 78.728 274.051 78.904 273.475 79.256C272.899 79.608 272.451 80.024 272.131 80.504V89H270.331V81.128C270.331 79.528 269.619 78.728 268.195 78.728C267.635 78.728 267.067 78.904 266.491 79.256C265.931 79.608 265.483 80.032 265.147 80.528V89H263.347V77.408H265.147V79.088C265.435 78.64 265.939 78.2 266.659 77.768C267.379 77.336 268.123 77.12 268.891 77.12C269.739 77.12 270.427 77.32 270.955 77.72C271.483 78.12 271.835 78.64 272.011 79.28C272.363 78.704 272.899 78.2 273.619 77.768C274.339 77.336 275.099 77.12 275.899 77.12C278.059 77.12 279.139 78.288 279.139 80.624V89ZM287.962 89.288C286.234 89.288 284.818 88.728 283.714 87.608C282.61 86.472 282.058 85 282.058 83.192C282.058 81.496 282.602 80.064 283.69 78.896C284.778 77.712 286.138 77.12 287.77 77.12C289.482 77.12 290.834 77.712 291.826 78.896C292.834 80.064 293.338 81.544 293.338 83.336V83.792H283.954C284.034 84.928 284.45 85.88 285.202 86.648C285.954 87.416 286.93 87.8 288.13 87.8C289.57 87.8 290.762 87.312 291.706 86.336L292.57 87.512C291.386 88.696 289.85 89.288 287.962 89.288ZM291.562 82.472C291.546 81.48 291.21 80.592 290.554 79.808C289.898 79.008 288.962 78.608 287.746 78.608C286.594 78.608 285.682 79 285.01 79.784C284.354 80.568 284.002 81.464 283.954 82.472H291.562ZM298.053 89H296.253V77.408H298.053V79.28C299.125 77.872 300.413 77.168 301.917 77.168V79.016C301.693 78.968 301.453 78.944 301.197 78.944C300.653 78.944 300.061 79.136 299.421 79.52C298.781 79.904 298.325 80.328 298.053 80.792V89ZM307.847 89.288C305.879 89.288 304.319 88.68 303.167 87.464L304.103 86.168C304.503 86.632 305.047 87.024 305.735 87.344C306.439 87.664 307.167 87.824 307.919 87.824C308.783 87.824 309.455 87.64 309.935 87.272C310.415 86.904 310.655 86.424 310.655 85.832C310.655 85.32 310.407 84.92 309.911 84.632C309.415 84.328 308.815 84.104 308.111 83.96C307.423 83.8 306.727 83.624 306.023 83.432C305.319 83.224 304.719 82.88 304.223 82.4C303.727 81.904 303.479 81.256 303.479 80.456C303.479 79.512 303.863 78.72 304.631 78.08C305.415 77.44 306.471 77.12 307.799 77.12C309.543 77.12 310.975 77.68 312.095 78.8L311.255 80.048C310.439 79.072 309.287 78.584 307.799 78.584C307.015 78.584 306.391 78.76 305.927 79.112C305.463 79.448 305.231 79.88 305.231 80.408C305.231 80.872 305.479 81.24 305.975 81.512C306.471 81.768 307.063 81.976 307.751 82.136C308.455 82.28 309.159 82.456 309.863 82.664C310.567 82.872 311.167 83.24 311.663 83.768C312.159 84.28 312.407 84.952 312.407 85.784C312.407 86.808 312.007 87.648 311.207 88.304C310.407 88.96 309.287 89.288 307.847 89.288ZM317.227 88.856C316.971 89.112 316.659 89.24 316.291 89.24C315.923 89.24 315.611 89.112 315.355 88.856C315.099 88.6 314.971 88.288 314.971 87.92C314.971 87.552 315.099 87.24 315.355 86.984C315.611 86.728 315.923 86.6 316.291 86.6C316.659 86.6 316.971 86.728 317.227 86.984C317.483 87.24 317.611 87.552 317.611 87.92C317.611 88.288 317.483 88.6 317.227 88.856Z" fill="black"/>
</svg>
