<svg width="171" height="47" viewBox="0 0 171 47" fill="none" xmlns="http://www.w3.org/2000/svg">
<path d="M11.8 36.75C8.33333 36.75 5.56667 36 3.5 34.5C1.43333 33 0.4 31.0833 0.4 28.75H8C8 29.5833 8.36667 30.2667 9.1 30.8C9.83333 31.3333 10.7833 31.6 11.95 31.6C12.7833 31.6 13.45 31.4 13.95 31C14.4833 30.6 14.75 30.05 14.75 29.35C14.75 28.25 14.1667 27.5667 13 27.3L7.1 25.8C5.13333 25.3 3.63333 24.45 2.6 23.25C1.56667 22.05 1.05 20.5833 1.05 18.85C1.05 16.5833 1.98333 14.75 3.85 13.35C5.71667 11.9167 8.21667 11.2 11.35 11.2C14.8167 11.2 17.4667 11.8667 19.3 13.2C21.1667 14.5333 22.1 16.3667 22.1 18.7H14.55C14.55 17.8667 14.25 17.2167 13.65 16.75C13.0833 16.2833 12.2833 16.05 11.25 16.05C10.4167 16.05 9.75 16.2333 9.25 16.6C8.75 16.9667 8.5 17.45 8.5 18.05C8.5 19.1167 9.18333 19.8333 10.55 20.2L16.25 21.75C18.15 22.25 19.6333 23.0833 20.7 24.25C21.8 25.3833 22.35 26.7833 22.35 28.45C22.35 30.95 21.4 32.9667 19.5 34.5C17.6333 36 15.0667 36.75 11.8 36.75ZM48.4477 33.15C46.0477 35.55 42.8143 36.75 38.7477 36.75C34.681 36.75 31.431 35.55 28.9977 33.15C26.5643 30.75 25.3477 27.6833 25.3477 23.95C25.3477 20.2167 26.5643 17.1667 28.9977 14.8C31.431 12.4 34.681 11.2 38.7477 11.2C42.8143 11.2 46.0477 12.4 48.4477 14.8C50.881 17.1667 52.0977 20.2167 52.0977 23.95C52.0977 27.6833 50.881 30.75 48.4477 33.15ZM38.7477 30.25C40.5143 30.25 41.9143 29.6667 42.9477 28.5C43.981 27.3333 44.4977 25.8167 44.4977 23.95C44.4977 22.0833 43.981 20.5667 42.9477 19.4C41.9143 18.2333 40.5143 17.65 38.7477 17.65C36.9477 17.65 35.531 18.2333 34.4977 19.4C33.4977 20.5667 32.9977 22.0833 32.9977 23.95C32.9977 25.8167 33.4977 27.3333 34.4977 28.5C35.531 29.6667 36.9477 30.25 38.7477 30.25ZM68.3258 36.75C64.3924 36.75 61.2591 35.5833 58.9258 33.25C56.5924 30.8833 55.4258 27.7833 55.4258 23.95C55.4258 20.1167 56.5924 17.0333 58.9258 14.7C61.2591 12.3667 64.3924 11.2 68.3258 11.2C71.8924 11.2 74.7924 12.0833 77.0258 13.85C79.2591 15.6167 80.5258 18.0167 80.8258 21.05H73.1758C72.6091 18.7833 71.0091 17.65 68.3758 17.65C66.7091 17.65 65.4091 18.2 64.4758 19.3C63.5424 20.4 63.0758 21.95 63.0758 23.95C63.0758 25.95 63.5424 27.5 64.4758 28.6C65.4091 29.7 66.7091 30.25 68.3758 30.25C71.0091 30.25 72.6091 29.1833 73.1758 27.05H80.8258C80.5258 30.0167 79.2591 32.3833 77.0258 34.15C74.7924 35.8833 71.8924 36.75 68.3258 36.75ZM92.4566 8.4C91.5566 9.3 90.4233 9.75 89.0566 9.75C87.69 9.75 86.5566 9.3 85.6566 8.4C84.79 7.5 84.3566 6.4 84.3566 5.1C84.3566 3.76666 84.79 2.65 85.6566 1.75C86.5566 0.849999 87.69 0.399999 89.0566 0.399999C90.4233 0.399999 91.5566 0.866666 92.4566 1.8C93.3566 2.7 93.8066 3.8 93.8066 5.1C93.8066 6.4 93.3566 7.5 92.4566 8.4ZM85.2066 36V11.9H92.8566V36H85.2066ZM122.871 22.7C122.871 23.7 122.805 24.8167 122.671 26.05H104.871C104.938 27.6167 105.471 28.8333 106.471 29.7C107.471 30.5667 108.821 31 110.521 31C112.855 31 114.355 30.25 115.021 28.75H122.521C122.155 31.1167 120.855 33.05 118.621 34.55C116.421 36.0167 113.721 36.75 110.521 36.75C106.421 36.75 103.188 35.6167 100.821 33.35C98.4548 31.0833 97.2715 27.95 97.2715 23.95C97.2715 20.0167 98.4548 16.9167 100.821 14.65C103.188 12.35 106.338 11.2 110.271 11.2C114.005 11.2 117.038 12.2667 119.371 14.4C121.705 16.5333 122.871 19.3 122.871 22.7ZM104.871 21.3H115.321C115.288 19.7 114.838 18.4667 113.971 17.6C113.105 16.7333 111.855 16.3 110.221 16.3C108.588 16.3 107.288 16.7667 106.321 17.7C105.388 18.6 104.905 19.8 104.871 21.3ZM139.8 30.05C140.867 30.05 141.75 30 142.45 29.9V36C140.983 36.2667 139.283 36.4 137.35 36.4C136.483 36.4 135.717 36.35 135.05 36.25C134.383 36.15 133.633 35.9333 132.8 35.6C131.967 35.2333 131.283 34.75 130.75 34.15C130.217 33.55 129.75 32.6833 129.35 31.55C128.983 30.4167 128.8 29.0833 128.8 27.55V17.95H125V11.9H128.8V4.75H136.45V11.9H141.9V17.95H136.45V25.95C136.45 27.5833 136.733 28.6833 137.3 29.25C137.867 29.7833 138.7 30.05 139.8 30.05ZM163.128 11.9H170.778V35.25C170.778 38.9833 169.628 41.8833 167.328 43.95C165.161 45.8167 162.211 46.75 158.478 46.75C154.578 46.75 151.611 45.9167 149.578 44.25C147.611 42.5833 146.611 40.4667 146.578 37.9H154.278C154.444 40.0667 155.844 41.15 158.478 41.15C161.578 41.15 163.128 39.35 163.128 35.75V32C161.728 34.6667 159.178 36 155.478 36C152.511 36 150.278 35.1 148.778 33.3C147.311 31.5 146.578 29.0333 146.578 25.9V11.9H154.228V24.75C154.228 28.2167 155.644 29.95 158.478 29.95C159.978 29.95 161.128 29.4167 161.928 28.35C162.728 27.25 163.128 25.75 163.128 23.85V11.9Z" fill="#7D97F4"/>
</svg>
